<svg xmlns="http://www.w3.org/2000/svg" xmlns:xlink="http://www.w3.org/1999/xlink" id="f" width="264.58" height="264.58" version="1.1" viewBox="0 0 264.58 264.58" class="selected"><defs id="g" class="draggable"><linearGradient id="a" class="draggable"><stop id="h" offset="0" stop-opacity=".705" class="draggable"/><stop id="i" offset="1" stop-opacity="0" class="draggable"/></linearGradient><linearGradient xlink:href="#a" id="e" x1="90.01" x2="90.01" y1="137.22" y2="133.58" gradientTransform="translate(-160.43 6.1)" gradientUnits="userSpaceOnUse" class="draggable"/><linearGradient xlink:href="#a" id="d" x1="90.01" x2="90.01" y1="137.22" y2="133.58" gradientTransform="translate(-160.42 -307)" gradientUnits="userSpaceOnUse" class="draggable"/><linearGradient id="c" x1="-86.004" x2="206.03" y1="323.72" y2="460.14" gradientUnits="userSpaceOnUse" class="draggable"><stop id="j" offset="0" stop-color="#900000" class="draggable"/><stop id="k" offset="1" stop-color="#0f008f" class="draggable"/></linearGradient></defs><g id="r" class="draggable"><g id="s" transform="translate(81.775 -197.6) scale(.84173)" class="draggable"><path id="t" fill="url(#b)" stroke="url(#c)" stroke-linejoin="round" stroke-width="7.938" d="M-17.816 323.72c-17.464 0-34.988 6.68-48.268 19.961-26.56 26.56-26.56 69.977 0 96.537 26.56 26.56 69.977 26.56 96.537 0l29.561-29.561 29.563 29.561c26.56 26.56 69.977 26.561 96.537 0 26.56-26.561 26.561-69.979 0-96.539-13.28-13.28-30.807-19.959-48.27-19.959-17.463 0-34.987 6.679-48.268 19.959l-29.563 29.562-29.561-29.561c-13.28-13.28-30.806-19.961-48.27-19.961zm0 26.391c10.694 0 21.337 4.052 29.562 12.277l29.561 29.561-29.561 29.562c-16.452 16.452-42.671 16.452-59.123 0-16.452-16.452-16.452-42.671 0-59.123 8.226-8.226 18.866-12.277 29.561-12.277zm155.66 0c10.694 0 21.336 4.051 29.562 12.277 16.452 16.452 16.452 42.669 0 59.121-16.452 16.452-42.671 16.454-59.123.002l-29.561-29.562 29.561-29.561c8.226-8.226 18.867-12.277 29.561-12.277z" color="#000" color-rendering="auto" dominant-baseline="auto" image-rendering="auto" shape-rendering="auto" stop-color="#000" style="font-feature-settings:normal;font-variant-alternates:normal;font-variant-caps:normal;font-variant-east-asian:normal;font-variant-ligatures:normal;font-variant-numeric:normal;font-variant-position:normal;font-variation-settings:normal;inline-size:0;isolation:auto;mix-blend-mode:normal;paint-order:normal;shape-margin:0;shape-padding:0;text-decoration-color:#000;text-decoration-line:none;text-decoration-style:solid;text-indent:0;text-orientation:mixed;text-transform:none;white-space:normal" class="draggable"/><g id="u" transform="translate(-.892 231.4)" class="draggable"><g fill-opacity=".997" color="#000" color-rendering="auto" dominant-baseline="auto" image-rendering="auto" class="draggable"><path id="v" fill="#00f" d="M-65.191 112.22c23.434-2.105 33.419 3.575 48.268 6.44h-.023c-11.634 0-22.022 4.66-29.584 12.221-14.47 13.843-25.962 21.307-38.68 29.584 0-18.781 7.67-35.897 20.019-48.245z" stop-color="#000" style="font-feature-settings:normal;font-variant-alternates:normal;font-variant-caps:normal;font-variant-east-asian:normal;font-variant-ligatures:normal;font-variant-numeric:normal;font-variant-position:normal;font-variation-settings:normal;inline-size:0;isolation:auto;mix-blend-mode:normal;shape-margin:0;shape-padding:0;text-decoration-color:#000;text-decoration-line:none;text-decoration-style:solid;text-indent:0;text-orientation:mixed;text-transform:none;white-space:normal" class="draggable"/><path id="w" fill="#a0f" d="M-65.192 208.82c15.816.586 31.954-2.046 48.268-6.44h-.023c-11.634 0-22.022-4.66-29.584-12.221-12.341-9.907-20.996-20.122-38.68-29.584 0 18.781 7.67 35.897 20.019 48.245z" stop-color="#000" style="font-feature-settings:normal;font-variant-alternates:normal;font-variant-caps:normal;font-variant-east-asian:normal;font-variant-ligatures:normal;font-variant-numeric:normal;font-variant-position:normal;font-variation-settings:normal;inline-size:0;isolation:auto;mix-blend-mode:normal;shape-margin:0;shape-padding:0;text-decoration-color:#000;text-decoration-line:none;text-decoration-style:solid;text-indent:0;text-orientation:mixed;text-transform:none;white-space:normal" class="draggable"/><path id="x" fill="#ff0" d="M187.01 112.22c-18.527-.639-33.076 3.268-48.268 6.44h.023c11.634 0 22.022 4.66 29.584 12.221 12.424 10.519 23.94 22.308 38.68 29.584 0-18.781-7.67-35.897-20.019-48.245z" stop-color="#000" style="font-feature-settings:normal;font-variant-alternates:normal;font-variant-caps:normal;font-variant-east-asian:normal;font-variant-ligatures:normal;font-variant-numeric:normal;font-variant-position:normal;font-variation-settings:normal;inline-size:0;isolation:auto;mix-blend-mode:normal;shape-margin:0;shape-padding:0;text-decoration-color:#000;text-decoration-line:none;text-decoration-style:solid;text-indent:0;text-orientation:mixed;text-transform:none;white-space:normal" class="draggable"/></g><path id="y" fill="#0ff" d="M90.469 208.76c-2.207-16.083-3.639-32.166-10.872-48.249l-48.251-48.29c-.227 15.821 1.317 31.768 10.872 48.288z" class="draggable"/><path id="z" fill="#0fa" d="M138.74 228.72c-17.463 0-34.987-6.678-48.268-19.959L79.6 160.473l.018.018c7.61 7.61 21.398 21.399 29.561 29.56 10.782 12.695 22.001 25.297 29.56 38.669z" color="#000" color-rendering="auto" dominant-baseline="auto" image-rendering="auto" shape-rendering="auto" stop-color="#000" style="font-feature-settings:normal;font-variant-alternates:normal;font-variant-caps:normal;font-variant-east-asian:normal;font-variant-ligatures:normal;font-variant-numeric:normal;font-variant-position:normal;font-variation-settings:normal;inline-size:0;isolation:auto;mix-blend-mode:normal;shape-margin:0;shape-padding:0;text-decoration-color:#000;text-decoration-line:none;text-decoration-style:solid;text-indent:0;text-orientation:mixed;text-transform:none;white-space:normal" class="draggable"/><path id="aa" fill="red" d="M90.469 112.22c-2.905 14.37-3.21 22.551-10.872 48.249l-48.251 48.29c-.402-15.149 5.47-31.774 10.872-48.288z" class="draggable"/><g color="#000" color-rendering="auto" dominant-baseline="auto" image-rendering="auto" class="draggable"><path id="ab" fill="#f50" d="M138.74 92.26c-17.463 0-34.987 6.678-48.268 19.959L79.6 160.507l.018-.018c7.61-7.61 21.398-21.399 29.561-29.56 11.432-11.115 22.085-23.104 29.56-38.669z" stop-color="#000" style="font-feature-settings:normal;font-variant-alternates:normal;font-variant-caps:normal;font-variant-east-asian:normal;font-variant-ligatures:normal;font-variant-numeric:normal;font-variant-position:normal;font-variation-settings:normal;inline-size:0;isolation:auto;mix-blend-mode:normal;shape-margin:0;shape-padding:0;text-decoration-color:#000;text-decoration-line:none;text-decoration-style:solid;text-indent:0;text-orientation:mixed;text-transform:none;white-space:normal" class="draggable"/><path id="ac" fill="#fa0" fill-opacity=".997" d="m138.74 92.26-29.577 38.684.017-.016c8.226-8.227 18.866-12.278 29.56-12.278l48.268-6.431c-13.28-13.28-30.806-19.96-48.269-19.96z" stop-color="#000" style="font-feature-settings:normal;font-variant-alternates:normal;font-variant-caps:normal;font-variant-east-asian:normal;font-variant-ligatures:normal;font-variant-numeric:normal;font-variant-position:normal;font-variation-settings:normal;inline-size:0;isolation:auto;mix-blend-mode:normal;shape-margin:0;shape-padding:0;text-decoration-color:#000;text-decoration-line:none;text-decoration-style:solid;text-indent:0;text-orientation:mixed;text-transform:none;white-space:normal" class="draggable"/><path id="ad" fill="#f05" d="M-16.922 228.72c17.463 0 34.988-6.678 48.268-19.959l10.872-48.288-.018.018c-7.61 7.61-21.398 21.399-29.561 29.56-12.108 12.89-21.943 25.78-29.56 38.669z" stop-color="#000" style="font-feature-settings:normal;font-variant-alternates:normal;font-variant-caps:normal;font-variant-east-asian:normal;font-variant-ligatures:normal;font-variant-numeric:normal;font-variant-position:normal;font-variation-settings:normal;inline-size:0;isolation:auto;mix-blend-mode:normal;shape-margin:0;shape-padding:0;text-decoration-color:#000;text-decoration-line:none;text-decoration-style:solid;text-indent:0;text-orientation:mixed;text-transform:none;white-space:normal" class="draggable"/><g fill-opacity=".997" class="draggable"><path id="ae" fill="#f0f" d="m-16.923 228.78 29.577-38.684-.017.016c-8.226 8.227-18.866 12.278-29.56 12.278l-48.269 6.431c13.28 13.28 30.806 19.96 48.27 19.96z" stop-color="#000" style="font-feature-settings:normal;font-variant-alternates:normal;font-variant-caps:normal;font-variant-east-asian:normal;font-variant-ligatures:normal;font-variant-numeric:normal;font-variant-position:normal;font-variation-settings:normal;inline-size:0;isolation:auto;mix-blend-mode:normal;shape-margin:0;shape-padding:0;text-decoration-color:#000;text-decoration-line:none;text-decoration-style:solid;text-indent:0;text-orientation:mixed;text-transform:none;white-space:normal" class="draggable"/><path id="af" fill="#0f0" d="M187.01 208.76c-16.445-1.791-37.13.658-48.268-6.44h.023c11.634 0 22.022-4.66 29.584-12.221 12.788-10.53 25.211-23.366 38.68-29.584 0 18.781-7.67 35.897-20.019 48.245z" stop-color="#000" style="font-feature-settings:normal;font-variant-alternates:normal;font-variant-caps:normal;font-variant-east-asian:normal;font-variant-ligatures:normal;font-variant-numeric:normal;font-variant-position:normal;font-variation-settings:normal;inline-size:0;isolation:auto;mix-blend-mode:normal;shape-margin:0;shape-padding:0;text-decoration-color:#000;text-decoration-line:none;text-decoration-style:solid;text-indent:0;text-orientation:mixed;text-transform:none;white-space:normal" class="draggable"/><path id="ag" fill="#0f5" d="m138.74 228.72-29.577-38.684.017.016c8.226 8.227 18.866 12.278 29.56 12.278l48.268 6.431c-13.28 13.28-30.806 19.96-48.269 19.96z" stop-color="#000" style="font-feature-settings:normal;font-variant-alternates:normal;font-variant-caps:normal;font-variant-east-asian:normal;font-variant-ligatures:normal;font-variant-numeric:normal;font-variant-position:normal;font-variation-settings:normal;inline-size:0;isolation:auto;mix-blend-mode:normal;shape-margin:0;shape-padding:0;text-decoration-color:#000;text-decoration-line:none;text-decoration-style:solid;text-indent:0;text-orientation:mixed;text-transform:none;white-space:normal" class="draggable"/></g><path id="ah" fill="#0af" d="M-16.922 92.26c17.463 0 34.988 6.678 48.268 19.959l10.872 48.288-.018-.018c-7.61-7.61-21.398-21.399-29.561-29.56-11.622-11.785-20.715-25.15-29.56-38.669z" stop-color="#000" style="font-feature-settings:normal;font-variant-alternates:normal;font-variant-caps:normal;font-variant-east-asian:normal;font-variant-ligatures:normal;font-variant-numeric:normal;font-variant-position:normal;font-variation-settings:normal;inline-size:0;isolation:auto;mix-blend-mode:normal;shape-margin:0;shape-padding:0;text-decoration-color:#000;text-decoration-line:none;text-decoration-style:solid;text-indent:0;text-orientation:mixed;text-transform:none;white-space:normal" class="draggable"/></g><path id="ai" fill="url(#e)" d="M-83.643 139.68h26.44v3.64h-26.44z" transform="rotate(-45)" class="draggable"/><g color="#000" color-rendering="auto" dominant-baseline="auto" image-rendering="auto" class="draggable"><path id="aj" fill="#05f" fill-opacity=".997" d="m-16.922 92.26 29.577 38.684-.017-.016C4.412 122.7-6.228 118.65-16.922 118.65l-48.269-6.431c13.28-13.28 30.806-19.96 48.27-19.96z" stop-color="#000" style="font-feature-settings:normal;font-variant-alternates:normal;font-variant-caps:normal;font-variant-east-asian:normal;font-variant-ligatures:normal;font-variant-numeric:normal;font-variant-position:normal;font-variation-settings:normal;inline-size:0;isolation:auto;mix-blend-mode:normal;shape-margin:0;shape-padding:0;text-decoration-color:#000;text-decoration-line:none;text-decoration-style:solid;text-indent:0;text-orientation:mixed;text-transform:none;white-space:normal" class="draggable"/><path id="ak" fill="#af0" d="m168.45 130.75-.007.093c16.393 16.44 16.393 42.591 0 59.031v.095l38.583-29.51v-.148z" stop-color="#000" style="font-feature-settings:normal;font-variant-alternates:normal;font-variant-caps:normal;font-variant-east-asian:normal;font-variant-ligatures:normal;font-variant-numeric:normal;font-variant-position:normal;font-variation-settings:normal;inline-size:0;isolation:auto;mix-blend-mode:normal;shape-margin:0;shape-padding:0;text-decoration-color:#000;text-decoration-line:none;text-decoration-style:solid;text-indent:0;text-orientation:mixed;text-transform:none;white-space:normal" class="draggable"/><path id="al" fill="#50f" d="M-46.627 131.02v.093c-16.393 16.44-16.393 42.591 0 59.031v.095l-38.583-29.51v-.148z" stop-color="#000" style="font-feature-settings:normal;font-variant-alternates:normal;font-variant-caps:normal;font-variant-east-asian:normal;font-variant-ligatures:normal;font-variant-numeric:normal;font-variant-position:normal;font-variation-settings:normal;inline-size:0;isolation:auto;mix-blend-mode:normal;shape-margin:0;shape-padding:0;text-decoration-color:#000;text-decoration-line:none;text-decoration-style:solid;text-indent:0;text-orientation:mixed;text-transform:none;white-space:normal" class="draggable"/></g><path id="am" fill="url(#d)" d="M-83.628-173.42h26.44v3.64h-26.44z" transform="scale(1 -1) rotate(45)" class="draggable"/></g></g></g></svg>