<?xml version="1.0" encoding="UTF-8"?>
<svg width="1e3" height="1e3" version="1.1" viewBox="0 0 264.58 264.58" xmlns="http://www.w3.org/2000/svg" xmlns:osb="http://www.openswatchbook.org/uri/2009/osb" xmlns:xlink="http://www.w3.org/1999/xlink"><defs><linearGradient id="a"><stop stop-opacity=".70501" offset="0"/><stop stop-opacity="0" offset="1"/></linearGradient><linearGradient id="e" x1="90.01" x2="90.01" y1="137.22" y2="133.58" gradientTransform="translate(-160.43 6.1003)" gradientUnits="userSpaceOnUse" xlink:href="#a"/><linearGradient id="d" x1="90.01" x2="90.01" y1="137.22" y2="133.58" gradientTransform="translate(-160.42 -307)" gradientUnits="userSpaceOnUse" xlink:href="#a"/><linearGradient id="c" x1="-86.004" x2="206.03" y1="323.72" y2="460.14" gradientUnits="userSpaceOnUse"><stop stop-color="#900000" offset="0"/><stop stop-color="#0f008f" offset="1"/></linearGradient><meshgradient id="b" x="-86.003799" y="323.72189" gradientUnits="userSpaceOnUse"><meshrow><meshpatch><stop stop-color="#900000" path="c 97.346,0  194.692,0  292.038,0"/><stop path="c 0,45.4728  0,90.9456  0,136.418"/><stop stop-color="#0f008f" path="c -97.346,0  -194.692,0  -292.038,0"/><stop path="c 0,-45.4728  0,-90.9456  0,-136.418"/></meshpatch></meshrow></meshgradient></defs><g transform="matrix(.82793 0 0 .82793 82.603 -192.19)"><path d="m-17.816 323.72c-17.464 2e-5 -34.988 6.6809-48.268 19.961-26.56 26.56-26.56 69.977 0 96.537 26.56 26.56 69.977 26.56 96.537 0 8.1627-8.1628 21.951-21.951 29.561-29.561 7.6093 7.609 21.399 21.397 29.563 29.561 26.56 26.56 69.977 26.561 96.537 0 26.56-26.561 26.561-69.979 0-96.539-13.28-13.28-30.807-19.959-48.27-19.959-17.463 1e-4 -34.987 6.6785-48.268 19.959-8.1633 8.1634-21.953 21.953-29.563 29.562-7.6097-7.6092-21.398-21.398-29.561-29.561-13.28-13.28-30.806-19.961-48.27-19.961zm0 26.391c10.694-1e-5 21.337 4.0516 29.562 12.277 8.1626 8.1626 21.951 21.95 29.561 29.561-7.6093 7.6096-21.398 21.399-29.561 29.562-16.452 16.452-42.671 16.452-59.123 0-16.452-16.452-16.452-42.671 0-59.123 8.2259-8.2259 18.866-12.277 29.561-12.277zm155.66 0c10.694-6e-5 21.336 4.0513 29.562 12.277 16.452 16.452 16.452 42.669 0 59.121-16.452 16.452-42.671 16.454-59.123 2e-3 -8.1629-8.1629-21.951-21.953-29.561-29.562 7.6097-7.6101 21.398-21.398 29.561-29.561 8.2261-8.2262 18.867-12.277 29.561-12.277z" color="#000000" color-rendering="auto" dominant-baseline="auto" fill="url(#b)" image-rendering="auto" shape-rendering="auto" solid-color="#000000" stop-color="#000000" stroke="url(#c)" stroke-linejoin="round" stroke-width="7.9375" style="font-feature-settings:normal;font-variant-alternates:normal;font-variant-caps:normal;font-variant-east-asian:normal;font-variant-ligatures:normal;font-variant-numeric:normal;font-variant-position:normal;font-variation-settings:normal;inline-size:0;isolation:auto;mix-blend-mode:normal;paint-order:normal;shape-margin:0;shape-padding:0;text-decoration-color:#000000;text-decoration-line:none;text-decoration-style:solid;text-indent:0;text-orientation:mixed;text-transform:none;white-space:normal"/><g transform="translate(-.89205 231.4)"><g fill-opacity=".99705" shape-rendering="auto"><path d="m-65.191 112.22c23.434-2.1054 33.419 3.575 48.268 6.44-6e-3 0-0.0166 3.4e-4 -0.023 3.4e-4l-3.7e-4 -3.7e-4c-11.634-4e-5 -22.022 4.6594-29.584 12.221-14.469 13.843-25.962 21.307-38.679 29.584 3e-5 -18.781 7.6702-35.897 20.018-48.245z" color="#000000" color-rendering="auto" dominant-baseline="auto" fill="#00f" image-rendering="auto" solid-color="#000000" stop-color="#000000" style="font-feature-settings:normal;font-variant-alternates:normal;font-variant-caps:normal;font-variant-east-asian:normal;font-variant-ligatures:normal;font-variant-numeric:normal;font-variant-position:normal;font-variation-settings:normal;inline-size:0;isolation:auto;mix-blend-mode:normal;shape-margin:0;shape-padding:0;text-decoration-color:#000000;text-decoration-line:none;text-decoration-style:solid;text-indent:0;text-orientation:mixed;text-transform:none;white-space:normal"/><path d="m-65.192 208.82c15.816 0.58554 31.954-2.0464 48.268-6.44-6e-3 0-0.0166-2.7e-4 -0.023-2.7e-4l-3.7e-4 2.7e-4c-11.634 7e-5 -22.022-4.6593-29.584-12.221-12.341-9.9072-20.996-20.122-38.679-29.584 4e-5 18.781 7.6702 35.897 20.018 48.245z" color="#000000" color-rendering="auto" dominant-baseline="auto" fill="#a0f" image-rendering="auto" solid-color="#000000" stop-color="#000000" style="font-feature-settings:normal;font-variant-alternates:normal;font-variant-caps:normal;font-variant-east-asian:normal;font-variant-ligatures:normal;font-variant-numeric:normal;font-variant-position:normal;font-variation-settings:normal;inline-size:0;isolation:auto;mix-blend-mode:normal;shape-margin:0;shape-padding:0;text-decoration-color:#000000;text-decoration-line:none;text-decoration-style:solid;text-indent:0;text-orientation:mixed;text-transform:none;white-space:normal"/><path d="m187.01 112.22c-18.527-0.63876-33.076 3.2678-48.268 6.44 6e-3 0 0.0166 3.5e-4 0.023 3.5e-4l3.7e-4 -3.8e-4c11.634-4e-5 22.022 4.6594 29.584 12.221 12.424 10.519 23.939 22.308 38.679 29.584-3e-5 -18.781-7.6702-35.897-20.018-48.245z" color="#000000" color-rendering="auto" dominant-baseline="auto" fill="#ff0" image-rendering="auto" solid-color="#000000" stop-color="#000000" style="font-feature-settings:normal;font-variant-alternates:normal;font-variant-caps:normal;font-variant-east-asian:normal;font-variant-ligatures:normal;font-variant-numeric:normal;font-variant-position:normal;font-variation-settings:normal;inline-size:0;isolation:auto;mix-blend-mode:normal;shape-margin:0;shape-padding:0;text-decoration-color:#000000;text-decoration-line:none;text-decoration-style:solid;text-indent:0;text-orientation:mixed;text-transform:none;white-space:normal"/></g><g><path d="m90.469 208.76c-2.2067-16.083-3.6388-32.166-10.872-48.249l-48.251-48.29c-0.2269 15.821 1.3168 31.768 10.872 48.288z" fill="#0ff"/><path d="m138.74 228.72c-17.463-1e-4 -34.987-6.6785-48.268-19.959l-10.872-48.288 0.0181 0.0181c-7e-5 7e-5 7e-5 5.3e-4 0 5.3e-4 7.6097 7.6101 21.398 21.398 29.561 29.56 10.782 12.694 22.001 25.296 29.56 38.668z" color="#000000" color-rendering="auto" dominant-baseline="auto" fill="#0fa" image-rendering="auto" shape-rendering="auto" solid-color="#000000" stop-color="#000000" style="font-feature-settings:normal;font-variant-alternates:normal;font-variant-caps:normal;font-variant-east-asian:normal;font-variant-ligatures:normal;font-variant-numeric:normal;font-variant-position:normal;font-variation-settings:normal;inline-size:0;isolation:auto;mix-blend-mode:normal;shape-margin:0;shape-padding:0;text-decoration-color:#000000;text-decoration-line:none;text-decoration-style:solid;text-indent:0;text-orientation:mixed;text-transform:none;white-space:normal"/><path d="m90.469 112.22c-2.9045 14.37-3.2097 22.551-10.872 48.249l-48.251 48.29c-0.40245-15.149 5.4703-31.774 10.872-48.288z" fill="#f00"/></g><g shape-rendering="auto"><path d="m138.74 92.26c-17.463 1e-4 -34.987 6.6785-48.268 19.959l-10.872 48.288 0.0181-0.0181c-7e-5 -6e-5 6e-5 -5.3e-4 0-5.3e-4 7.6097-7.6101 21.398-21.398 29.561-29.56 11.432-11.114 22.085-23.103 29.56-38.668z" color="#000000" color-rendering="auto" dominant-baseline="auto" fill="#f50" image-rendering="auto" solid-color="#000000" stop-color="#000000" style="font-feature-settings:normal;font-variant-alternates:normal;font-variant-caps:normal;font-variant-east-asian:normal;font-variant-ligatures:normal;font-variant-numeric:normal;font-variant-position:normal;font-variation-settings:normal;inline-size:0;isolation:auto;mix-blend-mode:normal;shape-margin:0;shape-padding:0;text-decoration-color:#000000;text-decoration-line:none;text-decoration-style:solid;text-indent:0;text-orientation:mixed;text-transform:none;white-space:normal"/><path d="m138.74 92.26-29.577 38.684c4e-3 -5e-3 0.012-0.0115 0.0165-0.016v-5.3e-4c8.2261-8.2262 18.867-12.277 29.56-12.277l48.269-6.4317c-13.28-13.28-30.806-19.959-48.269-19.959z" color="#000000" color-rendering="auto" dominant-baseline="auto" fill="#fa0" fill-opacity=".99705" image-rendering="auto" solid-color="#000000" stop-color="#000000" style="font-feature-settings:normal;font-variant-alternates:normal;font-variant-caps:normal;font-variant-east-asian:normal;font-variant-ligatures:normal;font-variant-numeric:normal;font-variant-position:normal;font-variation-settings:normal;inline-size:0;isolation:auto;mix-blend-mode:normal;shape-margin:0;shape-padding:0;text-decoration-color:#000000;text-decoration-line:none;text-decoration-style:solid;text-indent:0;text-orientation:mixed;text-transform:none;white-space:normal"/><path d="m-16.922 228.72c17.463-1e-4 34.988-6.6785 48.268-19.959l10.872-48.288-0.0181 0.0181c7e-5 7e-5 -7e-5 5.3e-4 0 5.3e-4 -7.6097 7.6101-21.398 21.398-29.561 29.56-12.108 12.889-21.943 25.779-29.56 38.668z" color="#000000" color-rendering="auto" dominant-baseline="auto" fill="#f05" image-rendering="auto" solid-color="#000000" stop-color="#000000" style="font-feature-settings:normal;font-variant-alternates:normal;font-variant-caps:normal;font-variant-east-asian:normal;font-variant-ligatures:normal;font-variant-numeric:normal;font-variant-position:normal;font-variation-settings:normal;inline-size:0;isolation:auto;mix-blend-mode:normal;shape-margin:0;shape-padding:0;text-decoration-color:#000000;text-decoration-line:none;text-decoration-style:solid;text-indent:0;text-orientation:mixed;text-transform:none;white-space:normal"/><g fill-opacity=".99705"><path d="m-16.923 228.78 29.577-38.684c-0.0045 5e-3 -0.01204 0.0115-0.01654 0.016v5.3e-4c-8.2261 8.2262-18.866 12.277-29.56 12.277l-48.269 6.4316c13.28 13.28 30.806 19.959 48.269 19.959z" color="#000000" color-rendering="auto" dominant-baseline="auto" fill="#f0f" image-rendering="auto" solid-color="#000000" stop-color="#000000" style="font-feature-settings:normal;font-variant-alternates:normal;font-variant-caps:normal;font-variant-east-asian:normal;font-variant-ligatures:normal;font-variant-numeric:normal;font-variant-position:normal;font-variation-settings:normal;inline-size:0;isolation:auto;mix-blend-mode:normal;shape-margin:0;shape-padding:0;text-decoration-color:#000000;text-decoration-line:none;text-decoration-style:solid;text-indent:0;text-orientation:mixed;text-transform:none;white-space:normal"/><path d="m187.01 208.76c-16.445-1.7914-37.13 0.65799-48.268-6.44 6e-3 0 0.0166-3.5e-4 0.023-3.5e-4l3.7e-4 3.7e-4c11.634 5e-5 22.022-4.6594 29.584-12.221 12.788-10.53 25.211-23.366 38.679-29.584-3e-5 18.781-7.6702 35.897-20.018 48.245z" color="#000000" color-rendering="auto" dominant-baseline="auto" fill="#0f0" image-rendering="auto" solid-color="#000000" stop-color="#000000" style="font-feature-settings:normal;font-variant-alternates:normal;font-variant-caps:normal;font-variant-east-asian:normal;font-variant-ligatures:normal;font-variant-numeric:normal;font-variant-position:normal;font-variation-settings:normal;inline-size:0;isolation:auto;mix-blend-mode:normal;shape-margin:0;shape-padding:0;text-decoration-color:#000000;text-decoration-line:none;text-decoration-style:solid;text-indent:0;text-orientation:mixed;text-transform:none;white-space:normal"/><path d="m138.74 228.72-29.577-38.684c5e-3 5e-3 0.012 0.0115 0.0165 0.016v5.3e-4c8.2261 8.2262 18.867 12.277 29.56 12.277l48.269 6.4317c-13.28 13.28-30.806 19.959-48.269 19.959z" color="#000000" color-rendering="auto" dominant-baseline="auto" fill="#0f5" image-rendering="auto" solid-color="#000000" stop-color="#000000" style="font-feature-settings:normal;font-variant-alternates:normal;font-variant-caps:normal;font-variant-east-asian:normal;font-variant-ligatures:normal;font-variant-numeric:normal;font-variant-position:normal;font-variation-settings:normal;inline-size:0;isolation:auto;mix-blend-mode:normal;shape-margin:0;shape-padding:0;text-decoration-color:#000000;text-decoration-line:none;text-decoration-style:solid;text-indent:0;text-orientation:mixed;text-transform:none;white-space:normal"/></g><path d="m-16.922 92.26c17.463 1e-4 34.988 6.6785 48.268 19.959l10.872 48.288-0.0181-0.0181c6.9e-5 -6e-5 -6.9e-5 -5.3e-4 0-5.3e-4 -7.6097-7.6101-21.398-21.398-29.561-29.56-11.622-11.784-20.715-25.149-29.56-38.668z" color="#000000" color-rendering="auto" dominant-baseline="auto" fill="#0af" image-rendering="auto" solid-color="#000000" stop-color="#000000" style="font-feature-settings:normal;font-variant-alternates:normal;font-variant-caps:normal;font-variant-east-asian:normal;font-variant-ligatures:normal;font-variant-numeric:normal;font-variant-position:normal;font-variation-settings:normal;inline-size:0;isolation:auto;mix-blend-mode:normal;shape-margin:0;shape-padding:0;text-decoration-color:#000000;text-decoration-line:none;text-decoration-style:solid;text-indent:0;text-orientation:mixed;text-transform:none;white-space:normal"/></g><rect transform="rotate(-45)" x="-83.643" y="139.68" width="26.44" height="3.64" fill="url(#e)"/><g shape-rendering="auto"><path d="m-16.922 92.26 29.577 38.684c-0.0045-5e-3 -0.01204-0.0115-0.01654-0.016v-5.3e-4c-8.2261-8.2262-18.866-12.277-29.56-12.277l-48.269-6.4316c13.28-13.28 30.806-19.959 48.269-19.959z" color="#000000" color-rendering="auto" dominant-baseline="auto" fill="#05f" fill-opacity=".99705" image-rendering="auto" solid-color="#000000" stop-color="#000000" style="font-feature-settings:normal;font-variant-alternates:normal;font-variant-caps:normal;font-variant-east-asian:normal;font-variant-ligatures:normal;font-variant-numeric:normal;font-variant-position:normal;font-variation-settings:normal;inline-size:0;isolation:auto;mix-blend-mode:normal;shape-margin:0;shape-padding:0;text-decoration-color:#000000;text-decoration-line:none;text-decoration-style:solid;text-indent:0;text-orientation:mixed;text-transform:none;white-space:normal"/><path d="m168.45 130.75-7e-3 0.093c16.393 16.44 16.393 42.591 0 59.031v0.0951l38.583-29.51c8e-5 -0.0493 5.3e-4 -0.0985 5.3e-4 -0.14779z" color="#000000" color-rendering="auto" dominant-baseline="auto" fill="#af0" image-rendering="auto" solid-color="#000000" stop-color="#000000" style="font-feature-settings:normal;font-variant-alternates:normal;font-variant-caps:normal;font-variant-east-asian:normal;font-variant-ligatures:normal;font-variant-numeric:normal;font-variant-position:normal;font-variation-settings:normal;inline-size:0;isolation:auto;mix-blend-mode:normal;shape-margin:0;shape-padding:0;text-decoration-color:#000000;text-decoration-line:none;text-decoration-style:solid;text-indent:0;text-orientation:mixed;text-transform:none;white-space:normal"/><path d="m-46.627 131.02v0.093c-16.393 16.44-16.393 42.591 0 59.031v0.0951l-38.583-29.51c-8e-5 -0.0493-5.3e-4 -0.0985-5.3e-4 -0.14779z" color="#000000" color-rendering="auto" dominant-baseline="auto" fill="#50f" image-rendering="auto" solid-color="#000000" stop-color="#000000" style="font-feature-settings:normal;font-variant-alternates:normal;font-variant-caps:normal;font-variant-east-asian:normal;font-variant-ligatures:normal;font-variant-numeric:normal;font-variant-position:normal;font-variation-settings:normal;inline-size:0;isolation:auto;mix-blend-mode:normal;shape-margin:0;shape-padding:0;text-decoration-color:#000000;text-decoration-line:none;text-decoration-style:solid;text-indent:0;text-orientation:mixed;text-transform:none;white-space:normal"/></g><rect transform="matrix(.70711 -.70711 -.70711 -.70711 0 0)" x="-83.628" y="-173.42" width="26.44" height="3.64" fill="url(#d)"/></g></g><g fill="#c200d2" stroke="#000" stroke-miterlimit="2.8" stroke-width="4.135" style="paint-order:stroke markers fill" aria-label="dev"><path d="m111.92 246.72h-4.8689v-3.0301q-2.0978 1.8129-4.3768 2.8229-2.279 1.01-4.9466 1.01-5.1797 0-8.2357-3.9883-3.0301-3.9883-3.0301-11.059 0-3.6776 1.0359-6.5523 1.0618-2.8747 2.8488-4.8948 1.7611-1.9683 4.0919-3.0042 2.3567-1.0359 4.8689-1.0359 2.279 0 4.0401 0.49207 1.7611 0.46617 3.7035 1.4762v-12.535h4.8689zm-4.8689-7.122v-16.601q-1.9683-0.88055-3.5222-1.2172-1.5539-0.33667-3.3927-0.33667-4.0919 0-6.371 2.8488-2.2791 2.8488-2.2791 8.0803 0 5.1538 1.7611 7.8472 1.7611 2.6675 5.6458 2.6675 2.0719 0 4.1955-0.90644 2.1237-0.93234 3.9624-2.3826z" style="paint-order:stroke markers fill"/><path d="m145.72 232.76h-21.314q0 2.6675 0.80285 4.6617 0.80285 1.9683 2.2014 3.2373 1.3467 1.2431 3.1855 1.8647 1.8647 0.62156 4.0919 0.62156 2.9524 0 5.9307-1.1654 3.0042-1.1913 4.2732-2.3308h0.25898v5.3092q-2.4603 1.0359-5.0243 1.7352-2.5639 0.69925-5.3868 0.69925-7.1997 0-11.24-3.8848-4.0401-3.9106-4.0401-11.084 0-7.0961 3.8588-11.266 3.8848-4.1696 10.204-4.1696 5.853 0 9.0126 3.4186 3.1855 3.4186 3.1855 9.7119zm-4.7394-3.7294q-0.0259-3.833-1.9424-5.9307-1.8906-2.0978-5.7753-2.0978-3.9106 0-6.2415 2.305-2.305 2.305-2.6157 5.7235z" style="paint-order:stroke markers fill"/><path d="m178.12 217.79-11.706 28.928h-4.8948l-11.628-28.928h5.2833l8.9608 23.024 8.8831-23.024z" style="paint-order:stroke markers fill"/></g><g fill="#c200d2" stroke="#000" stroke-miterlimit="2.8" stroke-width="4.135" style="paint-order:stroke markers fill" aria-label="kat"><path d="m119.35 56.011h-6.4079l-11.576-12.635-3.1523 2.9972v9.6377h-4.8576v-40.204h4.8576v25.787l14.03-14.444h6.1237l-13.41 13.333z"/><path d="m146.89 56.011h-4.8318v-3.0748q-0.64595 0.43925-1.757 1.2402-1.0852 0.77515-2.1187 1.2402-1.2144 0.59428-2.7905 0.98185-1.5761 0.41341-3.6949 0.41341-3.9016 0-6.6146-2.5838-2.713-2.5838-2.713-6.5887 0-3.2815 1.3953-5.2968 1.4211-2.0412 4.0308-3.2039 2.6355-1.1627 6.3304-1.5761 3.6949-0.41341 7.9323-0.62012v-0.74931q0-1.6536-0.59428-2.7389-0.56844-1.0852-1.6536-1.7053-1.0335-0.59428-2.4805-0.80098-1.447-0.20671-3.0231-0.20671-1.912 0-4.2633 0.51676-2.3513 0.49093-4.8576 1.4469h-0.25839v-4.9351q1.4211-0.38757 4.1083-0.85266 2.6872-0.46509 5.2968-0.46509 3.0489 0 5.2968 0.51676 2.2738 0.49093 3.9274 1.7053 1.6278 1.1886 2.4805 3.0747t0.85266 4.6767zm-4.8318-7.1055v-8.0357q-2.2221 0.12919-5.2452 0.38757-2.9972 0.25838-4.7542 0.74931-2.0929 0.59428-3.3848 1.8604-1.2919 1.2402-1.2919 3.4365 0 2.4805 1.4986 3.7465 1.4986 1.2402 4.5734 1.2402 2.558 0 4.6767-0.98185 2.1187-1.0077 3.9274-2.403z"/><path d="m171.23 55.753q-1.3694 0.36174-2.9972 0.59428-1.602 0.23254-2.868 0.23254-4.4183 0-6.7179-2.3771-2.2996-2.3771-2.2996-7.6223v-15.348h-3.2814v-4.0824h3.2814v-8.2941h4.8576v8.2941h10.025v4.0824h-10.025v13.152q0 2.2738 0.10335 3.5657 0.10336 1.2661 0.72348 2.3771 0.56844 1.0335 1.5503 1.5245 1.0077 0.46509 3.0489 0.46509 1.1886 0 2.4805-0.3359 1.2919-0.36174 1.8604-0.59428h0.25839z"/></g></svg>
