<?xml version="1.0" encoding="UTF-8"?>
<svg width="2e3" height="500" version="1.1" viewBox="0 0 529.17 132.29" xmlns="http://www.w3.org/2000/svg" xmlns:osb="http://www.openswatchbook.org/uri/2009/osb" xmlns:xlink="http://www.w3.org/1999/xlink"><defs><linearGradient id="a"><stop stop-opacity=".70501" offset="0"/><stop stop-opacity="0" offset="1"/></linearGradient><linearGradient id="e" x1="90.01" x2="90.01" y1="137.22" y2="133.58" gradientTransform="translate(-160.43 6.1003)" gradientUnits="userSpaceOnUse" xlink:href="#a"/><linearGradient id="d" x1="90.01" x2="90.01" y1="137.22" y2="133.58" gradientTransform="translate(-160.42 -307)" gradientUnits="userSpaceOnUse" xlink:href="#a"/><linearGradient id="c" x1="-86.004" x2="206.03" y1="323.72" y2="460.14" gradientUnits="userSpaceOnUse"><stop stop-color="#900000" offset="0"/><stop stop-color="#0f008f" offset="1"/></linearGradient><meshgradient id="b" x="-86.003799" y="323.72189" gradientUnits="userSpaceOnUse"><meshrow><meshpatch><stop stop-color="#900000" path="c 97.346,0  194.692,0  292.038,0"/><stop path="c 0,45.4728  0,90.9456  0,136.418"/><stop stop-color="#0f008f" path="c -97.346,0  -194.692,0  -292.038,0"/><stop path="c 0,-45.4728  0,-90.9456  0,-136.418"/></meshpatch></meshrow></meshgradient></defs><g transform="matrix(1 0 0 1.0132 .00027358 .73807)"><g transform="matrix(.52604 0 0 .52604 79.026 -141.61)"><path d="m-17.816 323.72c-17.464 2e-5 -34.988 6.6809-48.268 19.961-26.56 26.56-26.56 69.977 0 96.537 26.56 26.56 69.977 26.56 96.537 0 8.1627-8.1628 21.951-21.951 29.561-29.561 7.6093 7.609 21.399 21.397 29.563 29.561 26.56 26.56 69.977 26.561 96.537 0 26.56-26.561 26.561-69.979 0-96.539-13.28-13.28-30.807-19.959-48.27-19.959-17.463 1e-4 -34.987 6.6785-48.268 19.959-8.1633 8.1634-21.953 21.953-29.563 29.562-7.6097-7.6092-21.398-21.398-29.561-29.561-13.28-13.28-30.806-19.961-48.27-19.961zm0 26.391c10.694-1e-5 21.337 4.0516 29.562 12.277 8.1626 8.1626 21.951 21.95 29.561 29.561-7.6093 7.6096-21.398 21.399-29.561 29.562-16.452 16.452-42.671 16.452-59.123 0-16.452-16.452-16.452-42.671 0-59.123 8.2259-8.2259 18.866-12.277 29.561-12.277zm155.66 0c10.694-6e-5 21.336 4.0513 29.562 12.277 16.452 16.452 16.452 42.669 0 59.121-16.452 16.452-42.671 16.454-59.123 2e-3 -8.1629-8.1629-21.951-21.953-29.561-29.562 7.6097-7.6101 21.398-21.398 29.561-29.561 8.2261-8.2262 18.867-12.277 29.561-12.277z" color="#000000" color-rendering="auto" dominant-baseline="auto" fill="url(#b)" image-rendering="auto" shape-rendering="auto" solid-color="#000000" stop-color="#000000" stroke="url(#c)" stroke-linejoin="round" stroke-width="7.9375" style="font-feature-settings:normal;font-variant-alternates:normal;font-variant-caps:normal;font-variant-east-asian:normal;font-variant-ligatures:normal;font-variant-numeric:normal;font-variant-position:normal;font-variation-settings:normal;inline-size:0;isolation:auto;mix-blend-mode:normal;paint-order:normal;shape-margin:0;shape-padding:0;text-decoration-color:#000000;text-decoration-line:none;text-decoration-style:solid;text-indent:0;text-orientation:mixed;text-transform:none;white-space:normal"/><g transform="translate(-.89205 231.4)"><g fill-opacity=".99705" shape-rendering="auto"><path d="m-65.191 112.22c23.434-2.1054 33.419 3.575 48.268 6.44-6e-3 0-0.0166 3.4e-4 -0.023 3.4e-4l-3.7e-4 -3.7e-4c-11.634-4e-5 -22.022 4.6594-29.584 12.221-14.469 13.843-25.962 21.307-38.679 29.584 3e-5 -18.781 7.6702-35.897 20.018-48.245z" color="#000000" color-rendering="auto" dominant-baseline="auto" fill="#00f" image-rendering="auto" solid-color="#000000" stop-color="#000000" style="font-feature-settings:normal;font-variant-alternates:normal;font-variant-caps:normal;font-variant-east-asian:normal;font-variant-ligatures:normal;font-variant-numeric:normal;font-variant-position:normal;font-variation-settings:normal;inline-size:0;isolation:auto;mix-blend-mode:normal;shape-margin:0;shape-padding:0;text-decoration-color:#000000;text-decoration-line:none;text-decoration-style:solid;text-indent:0;text-orientation:mixed;text-transform:none;white-space:normal"/><path d="m-65.192 208.82c15.816 0.58554 31.954-2.0464 48.268-6.44-6e-3 0-0.0166-2.7e-4 -0.023-2.7e-4l-3.7e-4 2.7e-4c-11.634 7e-5 -22.022-4.6593-29.584-12.221-12.341-9.9072-20.996-20.122-38.679-29.584 4e-5 18.781 7.6702 35.897 20.018 48.245z" color="#000000" color-rendering="auto" dominant-baseline="auto" fill="#a0f" image-rendering="auto" solid-color="#000000" stop-color="#000000" style="font-feature-settings:normal;font-variant-alternates:normal;font-variant-caps:normal;font-variant-east-asian:normal;font-variant-ligatures:normal;font-variant-numeric:normal;font-variant-position:normal;font-variation-settings:normal;inline-size:0;isolation:auto;mix-blend-mode:normal;shape-margin:0;shape-padding:0;text-decoration-color:#000000;text-decoration-line:none;text-decoration-style:solid;text-indent:0;text-orientation:mixed;text-transform:none;white-space:normal"/><path d="m187.01 112.22c-18.527-0.63876-33.076 3.2678-48.268 6.44 6e-3 0 0.0166 3.5e-4 0.023 3.5e-4l3.7e-4 -3.8e-4c11.634-4e-5 22.022 4.6594 29.584 12.221 12.424 10.519 23.939 22.308 38.679 29.584-3e-5 -18.781-7.6702-35.897-20.018-48.245z" color="#000000" color-rendering="auto" dominant-baseline="auto" fill="#ff0" image-rendering="auto" solid-color="#000000" stop-color="#000000" style="font-feature-settings:normal;font-variant-alternates:normal;font-variant-caps:normal;font-variant-east-asian:normal;font-variant-ligatures:normal;font-variant-numeric:normal;font-variant-position:normal;font-variation-settings:normal;inline-size:0;isolation:auto;mix-blend-mode:normal;shape-margin:0;shape-padding:0;text-decoration-color:#000000;text-decoration-line:none;text-decoration-style:solid;text-indent:0;text-orientation:mixed;text-transform:none;white-space:normal"/></g><g><path d="m90.469 208.76c-2.2067-16.083-3.6388-32.166-10.872-48.249l-48.251-48.29c-0.2269 15.821 1.3168 31.768 10.872 48.288z" fill="#0ff"/><path d="m138.74 228.72c-17.463-1e-4 -34.987-6.6785-48.268-19.959l-10.872-48.288 0.0181 0.0181c-7e-5 7e-5 7e-5 5.3e-4 0 5.3e-4 7.6097 7.6101 21.398 21.398 29.561 29.56 10.782 12.694 22.001 25.296 29.56 38.668z" color="#000000" color-rendering="auto" dominant-baseline="auto" fill="#0fa" image-rendering="auto" shape-rendering="auto" solid-color="#000000" stop-color="#000000" style="font-feature-settings:normal;font-variant-alternates:normal;font-variant-caps:normal;font-variant-east-asian:normal;font-variant-ligatures:normal;font-variant-numeric:normal;font-variant-position:normal;font-variation-settings:normal;inline-size:0;isolation:auto;mix-blend-mode:normal;shape-margin:0;shape-padding:0;text-decoration-color:#000000;text-decoration-line:none;text-decoration-style:solid;text-indent:0;text-orientation:mixed;text-transform:none;white-space:normal"/><path d="m90.469 112.22c-2.9045 14.37-3.2097 22.551-10.872 48.249l-48.251 48.29c-0.40245-15.149 5.4703-31.774 10.872-48.288z" fill="#f00"/></g><g shape-rendering="auto"><path d="m138.74 92.26c-17.463 1e-4 -34.987 6.6785-48.268 19.959l-10.872 48.288 0.0181-0.0181c-7e-5 -6e-5 6e-5 -5.3e-4 0-5.3e-4 7.6097-7.6101 21.398-21.398 29.561-29.56 11.432-11.114 22.085-23.103 29.56-38.668z" color="#000000" color-rendering="auto" dominant-baseline="auto" fill="#f50" image-rendering="auto" solid-color="#000000" stop-color="#000000" style="font-feature-settings:normal;font-variant-alternates:normal;font-variant-caps:normal;font-variant-east-asian:normal;font-variant-ligatures:normal;font-variant-numeric:normal;font-variant-position:normal;font-variation-settings:normal;inline-size:0;isolation:auto;mix-blend-mode:normal;shape-margin:0;shape-padding:0;text-decoration-color:#000000;text-decoration-line:none;text-decoration-style:solid;text-indent:0;text-orientation:mixed;text-transform:none;white-space:normal"/><path d="m138.74 92.26-29.577 38.684c4e-3 -5e-3 0.012-0.0115 0.0165-0.016v-5.3e-4c8.2261-8.2262 18.867-12.277 29.56-12.277l48.269-6.4317c-13.28-13.28-30.806-19.959-48.269-19.959z" color="#000000" color-rendering="auto" dominant-baseline="auto" fill="#fa0" fill-opacity=".99705" image-rendering="auto" solid-color="#000000" stop-color="#000000" style="font-feature-settings:normal;font-variant-alternates:normal;font-variant-caps:normal;font-variant-east-asian:normal;font-variant-ligatures:normal;font-variant-numeric:normal;font-variant-position:normal;font-variation-settings:normal;inline-size:0;isolation:auto;mix-blend-mode:normal;shape-margin:0;shape-padding:0;text-decoration-color:#000000;text-decoration-line:none;text-decoration-style:solid;text-indent:0;text-orientation:mixed;text-transform:none;white-space:normal"/><path d="m-16.922 228.72c17.463-1e-4 34.988-6.6785 48.268-19.959l10.872-48.288-0.0181 0.0181c7e-5 7e-5 -7e-5 5.3e-4 0 5.3e-4 -7.6097 7.6101-21.398 21.398-29.561 29.56-12.108 12.889-21.943 25.779-29.56 38.668z" color="#000000" color-rendering="auto" dominant-baseline="auto" fill="#f05" image-rendering="auto" solid-color="#000000" stop-color="#000000" style="font-feature-settings:normal;font-variant-alternates:normal;font-variant-caps:normal;font-variant-east-asian:normal;font-variant-ligatures:normal;font-variant-numeric:normal;font-variant-position:normal;font-variation-settings:normal;inline-size:0;isolation:auto;mix-blend-mode:normal;shape-margin:0;shape-padding:0;text-decoration-color:#000000;text-decoration-line:none;text-decoration-style:solid;text-indent:0;text-orientation:mixed;text-transform:none;white-space:normal"/><g fill-opacity=".99705"><path d="m-16.923 228.78 29.577-38.684c-0.0045 5e-3 -0.01204 0.0115-0.01654 0.016v5.3e-4c-8.2261 8.2262-18.866 12.277-29.56 12.277l-48.269 6.4316c13.28 13.28 30.806 19.959 48.269 19.959z" color="#000000" color-rendering="auto" dominant-baseline="auto" fill="#f0f" image-rendering="auto" solid-color="#000000" stop-color="#000000" style="font-feature-settings:normal;font-variant-alternates:normal;font-variant-caps:normal;font-variant-east-asian:normal;font-variant-ligatures:normal;font-variant-numeric:normal;font-variant-position:normal;font-variation-settings:normal;inline-size:0;isolation:auto;mix-blend-mode:normal;shape-margin:0;shape-padding:0;text-decoration-color:#000000;text-decoration-line:none;text-decoration-style:solid;text-indent:0;text-orientation:mixed;text-transform:none;white-space:normal"/><path d="m187.01 208.76c-16.445-1.7914-37.13 0.65799-48.268-6.44 6e-3 0 0.0166-3.5e-4 0.023-3.5e-4l3.7e-4 3.7e-4c11.634 5e-5 22.022-4.6594 29.584-12.221 12.788-10.53 25.211-23.366 38.679-29.584-3e-5 18.781-7.6702 35.897-20.018 48.245z" color="#000000" color-rendering="auto" dominant-baseline="auto" fill="#0f0" image-rendering="auto" solid-color="#000000" stop-color="#000000" style="font-feature-settings:normal;font-variant-alternates:normal;font-variant-caps:normal;font-variant-east-asian:normal;font-variant-ligatures:normal;font-variant-numeric:normal;font-variant-position:normal;font-variation-settings:normal;inline-size:0;isolation:auto;mix-blend-mode:normal;shape-margin:0;shape-padding:0;text-decoration-color:#000000;text-decoration-line:none;text-decoration-style:solid;text-indent:0;text-orientation:mixed;text-transform:none;white-space:normal"/><path d="m138.74 228.72-29.577-38.684c5e-3 5e-3 0.012 0.0115 0.0165 0.016v5.3e-4c8.2261 8.2262 18.867 12.277 29.56 12.277l48.269 6.4317c-13.28 13.28-30.806 19.959-48.269 19.959z" color="#000000" color-rendering="auto" dominant-baseline="auto" fill="#0f5" image-rendering="auto" solid-color="#000000" stop-color="#000000" style="font-feature-settings:normal;font-variant-alternates:normal;font-variant-caps:normal;font-variant-east-asian:normal;font-variant-ligatures:normal;font-variant-numeric:normal;font-variant-position:normal;font-variation-settings:normal;inline-size:0;isolation:auto;mix-blend-mode:normal;shape-margin:0;shape-padding:0;text-decoration-color:#000000;text-decoration-line:none;text-decoration-style:solid;text-indent:0;text-orientation:mixed;text-transform:none;white-space:normal"/></g><path d="m-16.922 92.26c17.463 1e-4 34.988 6.6785 48.268 19.959l10.872 48.288-0.0181-0.0181c6.9e-5 -6e-5 -6.9e-5 -5.3e-4 0-5.3e-4 -7.6097-7.6101-21.398-21.398-29.561-29.56-11.622-11.784-20.715-25.149-29.56-38.668z" color="#000000" color-rendering="auto" dominant-baseline="auto" fill="#0af" image-rendering="auto" solid-color="#000000" stop-color="#000000" style="font-feature-settings:normal;font-variant-alternates:normal;font-variant-caps:normal;font-variant-east-asian:normal;font-variant-ligatures:normal;font-variant-numeric:normal;font-variant-position:normal;font-variation-settings:normal;inline-size:0;isolation:auto;mix-blend-mode:normal;shape-margin:0;shape-padding:0;text-decoration-color:#000000;text-decoration-line:none;text-decoration-style:solid;text-indent:0;text-orientation:mixed;text-transform:none;white-space:normal"/></g><rect transform="rotate(-45)" x="-83.643" y="139.68" width="26.44" height="3.64" fill="url(#e)"/><g shape-rendering="auto"><path d="m-16.922 92.26 29.577 38.684c-0.0045-5e-3 -0.01204-0.0115-0.01654-0.016v-5.3e-4c-8.2261-8.2262-18.866-12.277-29.56-12.277l-48.269-6.4316c13.28-13.28 30.806-19.959 48.269-19.959z" color="#000000" color-rendering="auto" dominant-baseline="auto" fill="#05f" fill-opacity=".99705" image-rendering="auto" solid-color="#000000" stop-color="#000000" style="font-feature-settings:normal;font-variant-alternates:normal;font-variant-caps:normal;font-variant-east-asian:normal;font-variant-ligatures:normal;font-variant-numeric:normal;font-variant-position:normal;font-variation-settings:normal;inline-size:0;isolation:auto;mix-blend-mode:normal;shape-margin:0;shape-padding:0;text-decoration-color:#000000;text-decoration-line:none;text-decoration-style:solid;text-indent:0;text-orientation:mixed;text-transform:none;white-space:normal"/><path d="m168.45 130.75-7e-3 0.093c16.393 16.44 16.393 42.591 0 59.031v0.0951l38.583-29.51c8e-5 -0.0493 5.3e-4 -0.0985 5.3e-4 -0.14779z" color="#000000" color-rendering="auto" dominant-baseline="auto" fill="#af0" image-rendering="auto" solid-color="#000000" stop-color="#000000" style="font-feature-settings:normal;font-variant-alternates:normal;font-variant-caps:normal;font-variant-east-asian:normal;font-variant-ligatures:normal;font-variant-numeric:normal;font-variant-position:normal;font-variation-settings:normal;inline-size:0;isolation:auto;mix-blend-mode:normal;shape-margin:0;shape-padding:0;text-decoration-color:#000000;text-decoration-line:none;text-decoration-style:solid;text-indent:0;text-orientation:mixed;text-transform:none;white-space:normal"/><path d="m-46.627 131.02v0.093c-16.393 16.44-16.393 42.591 0 59.031v0.0951l-38.583-29.51c-8e-5 -0.0493-5.3e-4 -0.0985-5.3e-4 -0.14779z" color="#000000" color-rendering="auto" dominant-baseline="auto" fill="#50f" image-rendering="auto" solid-color="#000000" stop-color="#000000" style="font-feature-settings:normal;font-variant-alternates:normal;font-variant-caps:normal;font-variant-east-asian:normal;font-variant-ligatures:normal;font-variant-numeric:normal;font-variant-position:normal;font-variation-settings:normal;inline-size:0;isolation:auto;mix-blend-mode:normal;shape-margin:0;shape-padding:0;text-decoration-color:#000000;text-decoration-line:none;text-decoration-style:solid;text-indent:0;text-orientation:mixed;text-transform:none;white-space:normal"/></g><rect transform="matrix(.70711 -.70711 -.70711 -.70711 0 0)" x="-83.628" y="-173.42" width="26.44" height="3.64" fill="url(#d)"/></g></g><g stroke-miterlimit="2.8"><g shape-rendering="auto" stroke-width="2.8" style="paint-order:stroke markers fill"><path d="m14.883 47.664v36.963h11.92v-5.3086h-6.0684v-26.346h6.0684v-5.3086zm2.8008 2.8008h0.25v31.361h-0.25z" color="#000000" color-rendering="auto" dominant-baseline="auto" image-rendering="auto" solid-color="#000000" stop-color="#000000" style="font-feature-settings:normal;font-variant-alternates:normal;font-variant-caps:normal;font-variant-east-asian:normal;font-variant-ligatures:normal;font-variant-numeric:normal;font-variant-position:normal;font-variation-settings:normal;inline-size:0;isolation:auto;mix-blend-mode:normal;paint-order:stroke markers fill;shape-margin:0;shape-padding:0;text-decoration-color:#000000;text-decoration-line:none;text-decoration-style:solid;text-indent:0;text-orientation:mixed;text-transform:none;white-space:normal"/><path d="m25.402 83.227h-9.1193v-34.162h9.1193v2.5078h-6.0679v29.147h6.0679z" color="#000000" color-rendering="auto" dominant-baseline="auto" fill="#c200d2" image-rendering="auto" solid-color="#000000" stop-color="#000000" style="font-feature-settings:normal;font-variant-alternates:normal;font-variant-caps:normal;font-variant-east-asian:normal;font-variant-ligatures:normal;font-variant-numeric:normal;font-variant-position:normal;font-variation-settings:normal;inline-size:0;isolation:auto;mix-blend-mode:normal;paint-order:stroke markers fill;shape-margin:0;shape-padding:0;text-decoration-color:#000000;text-decoration-line:none;text-decoration-style:solid;text-indent:0;text-orientation:mixed;text-transform:none;white-space:normal"/><path d="m194.15 47.664v5.3086h6.0684v26.346h-6.0684v5.3086h11.92v-36.963zm8.8672 2.8008h0.25196v31.361h-0.25196z" color="#000000" color-rendering="auto" dominant-baseline="auto" image-rendering="auto" solid-color="#000000" stop-color="#000000" style="font-feature-settings:normal;font-variant-alternates:normal;font-variant-caps:normal;font-variant-east-asian:normal;font-variant-ligatures:normal;font-variant-numeric:normal;font-variant-position:normal;font-variation-settings:normal;inline-size:0;isolation:auto;mix-blend-mode:normal;paint-order:stroke markers fill;shape-margin:0;shape-padding:0;text-decoration-color:#000000;text-decoration-line:none;text-decoration-style:solid;text-indent:0;text-orientation:mixed;text-transform:none;white-space:normal"/><path d="m204.67 83.227h-9.1193v-2.5078h6.0679v-29.147h-6.0679v-2.5078h9.1193z" color="#000000" color-rendering="auto" dominant-baseline="auto" fill="#c200d2" image-rendering="auto" solid-color="#000000" stop-color="#000000" style="font-feature-settings:normal;font-variant-alternates:normal;font-variant-caps:normal;font-variant-east-asian:normal;font-variant-ligatures:normal;font-variant-numeric:normal;font-variant-position:normal;font-variation-settings:normal;inline-size:0;isolation:auto;mix-blend-mode:normal;paint-order:stroke markers fill;shape-margin:0;shape-padding:0;text-decoration-color:#000000;text-decoration-line:none;text-decoration-style:solid;text-indent:0;text-orientation:mixed;text-transform:none;white-space:normal"/><path d="m218.05 47.314v5.041c-2.0524 0.3425-3.8782 0.97617-5.2363 2.1602l-4e-3 4e-3c-1.6084 1.4143-2.5098 3.3394-2.5098 5.4355 0 1.6885 0.53154 3.2625 1.5801 4.4883l4e-3 2e-3 2e-3 0.0039c1.1016 1.2722 2.7471 2.0762 4.8203 2.5977 0.35063 0.09628 0.72373 0.19269 1.125 0.28711l0.039 0.0078c0.0551 0.01135 0.12325 0.02554 0.17969 0.03711v4.8652c-0.29293-0.04398-0.61864-0.05232-0.89453-0.11524-2e-3 -5.16e-4 -4e-3 5.16e-4 -6e-3 0-0.75532-0.1869-1.4094-0.38302-1.9492-0.58008l-4e-3 -2e-3c-0.47063-0.17414-0.96738-0.39835-1.4902-0.67578-0.53369-0.29511-0.91608-0.53315-1.0195-0.60938l-0.36914-0.27148h-2.1406v5.7695l0.81641 0.375c1.1101 0.50935 2.3786 0.90971 3.8125 1.2188h6e-3l6e-3 2e-3c1.0178 0.21057 2.1315 0.25763 3.2324 0.32617v6.4023h4.8691v-6.6406c1.9415-0.36497 3.6986-1.0104 5.0625-2.1602l2e-3 -2e-3 4e-3 -2e-3c1.6786-1.4289 2.6133-3.4153 2.6133-5.5918 0-1.8602-0.62228-3.5544-1.8711-4.7441-1.1868-1.1414-2.7893-1.8772-4.707-2.2891l-0.0137-2e-3 -0.0156-0.0039c-0.27215-0.05234-0.60514-0.12268-0.98437-0.20898l-0.0371-0.0078c-0.0185-0.0047-0.0343-0.0071-0.0527-0.01172v-4.7246c0.61378 0.12001 1.3896 0.18942 1.7852 0.36524l0.02 0.0078c0.89677 0.38277 1.7524 0.82452 2.5703 1.3262l0.33789 0.20703h2.0391v-5.7832l-0.87696-0.35352c-0.94883-0.38217-2.062-0.69753-3.3594-0.9668-0.85285-0.17701-1.6812-0.21748-2.5156-0.29102v-4.8926zm6.2793 7.8633c0.18287 0.03271 0.35235 0.02415 0.53711 0.0625 0.30497 0.0633 0.46802 0.14516 0.74414 0.21289-0.36157-0.14932-0.876-0.16777-1.2812-0.27539zm1.4941 0.31641 0.0176 0.0078c-1e-3 -4.58e-4 -3e-3 4.58e-4 -4e-3 0-5e-3 -0.0021-9e-3 -0.0057-0.0137-0.0078zm0.082 0.04297c0.34354 0.08998 0.67357 0.17983 0.9668 0.27539v0.22266c-0.32625-0.15977-0.63149-0.35332-0.9668-0.49805zm-10.852 0.85938c-0.85486 0.81828-1.4395 1.9043-1.4395 3.1035 0 1.3408 0.45925 2.6335 1.4375 3.4668 0.98405 0.83826 2.3065 1.2697 4.1055 1.6543l1.5996 0.3418-0.63672-0.12109v0.09766l-0.39453-0.07813c-0.45138-0.09028-0.86731-0.1748-1.252-0.25391-0.38261-0.09003-0.73356-0.17953-1.0527-0.26758l-0.0312-0.0078c-1.7336-0.43607-2.8209-1.0656-3.3808-1.709l-2e-3 -2e-3c-0.61042-0.71451-0.9082-1.5263-0.9082-2.666 0-1.3631 0.45525-2.3583 1.5566-3.3281 0.10716-0.09337 0.28139-0.1436 0.39844-0.23047zm2.9961 1.4902v3.3789c-0.35004-0.15085-1.0671-0.33215-1.1816-0.42969-0.28442-0.24229-0.45508-0.54894-0.45508-1.3359 0-0.67371 0.1415-0.93751 0.67188-1.3008l6e-3 -0.0039 4e-3 -0.0039c0.24-0.16767 0.65857-0.18653 0.95508-0.30469zm2.8008 6.9707 0.43946 0.07422c0.30347 0.05058 0.64514 0.12393 1.0215 0.2207l0.0176 0.0039 0.0195 0.0039c0.40914 0.09352 0.76698 0.17066 1.0859 0.23242 1.5646 0.33603 2.6505 0.88758 3.3574 1.5684l4e-3 0.0039 2e-3 2e-3c0.66645 0.63395 1.0039 1.4258 1.0039 2.7207 0 1.4479-0.48014 2.4794-1.6308 3.459-0.02 0.01679-0.0501 0.02444-0.0703 0.04102 0.71763-0.8354 1.1856-1.8813 1.1856-3.043 0-1.3875-0.52633-2.7356-1.6016-3.5254-0.98221-0.74057-2.2571-1.1509-3.9043-1.4629l-0.92969-0.17578zm2.0684 3.623c0.32054 0.13253 0.93864 0.26521 1.0859 0.37695l0.0117 0.0078 0.01 0.0078c0.29738 0.21673 0.46094 0.46539 0.46094 1.2715 0 0.83624-0.18228 1.1562-0.58398 1.459l-8e-3 0.0078c-0.17724 0.13571-0.68683 0.18862-0.97656 0.30469zm-9.9434 5.1289c0.42025 0.20246 0.84154 0.41401 1.2539 0.56641h2e-3l4e-3 2e-3c0.4777 0.17454 1.0527 0.32731 1.6191 0.48242-0.1441-0.02611-0.31745-0.01572-0.45899-0.04492l-0.01-2e-3c-0.95148-0.20556-1.6806-0.48706-2.4102-0.76562z" color="#000000" color-rendering="auto" dominant-baseline="auto" image-rendering="auto" solid-color="#000000" stop-color="#000000" style="font-feature-settings:normal;font-variant-alternates:normal;font-variant-caps:normal;font-variant-east-asian:normal;font-variant-ligatures:normal;font-variant-numeric:normal;font-variant-position:normal;font-variation-settings:normal;inline-size:0;isolation:auto;mix-blend-mode:normal;paint-order:stroke markers fill;shape-margin:0;shape-padding:0;text-decoration-color:#000000;text-decoration-line:none;text-decoration-style:solid;text-indent:0;text-orientation:mixed;text-transform:none;white-space:normal"/><path d="m229.2 69.688c0 1.8122-0.70733 3.3204-2.122 4.5246-1.4147 1.1925-3.2678 1.8999-5.5593 2.122v6.3485h-2.0694v-6.2608c-1.5433-0.01169-2.993-0.15784-4.3492-0.43843-1.3562-0.29229-2.5312-0.66641-3.525-1.1224v-3.4724h0.2806c0.22213 0.16368 0.61964 0.40336 1.1925 0.71903 0.57288 0.30398 1.1282 0.55534 1.666 0.7541 0.60796 0.22214 1.3153 0.43258 2.122 0.63134 0.81841 0.18706 1.6894 0.29813 2.613 0.33321v-7.5936c-0.46766-0.09353-0.90025-0.18122-1.2978-0.26306-0.39751-0.09353-0.76579-0.18706-1.1048-0.2806-1.9057-0.47935-3.2736-1.1984-4.1037-2.1571-0.83009-0.97039-1.2451-2.1629-1.2451-3.5776 0-1.7303 0.67811-3.1918 2.0343-4.3843 1.3679-1.1925 3.2736-1.8882 5.7171-2.0869v-4.7701h2.0694v4.735c1.1808 0.02338 2.3909 0.16368 3.6302 0.42089 1.2393 0.25721 2.2798 0.55534 3.1216 0.8944v3.4373h-0.24552c-0.87686-0.53781-1.7946-1.0113-2.7533-1.4205-0.94701-0.42089-2.198-0.68395-3.753-0.78917v7.5585c0.35074 0.05846 0.73071 0.1403 1.1399 0.24552 0.4092 0.09353 0.76579 0.16953 1.0698 0.22798 1.742 0.37413 3.0865 1.0172 4.0336 1.9291 0.9587 0.91194 1.438 2.1571 1.438 3.7354zm-9.7507-6.4362v-7.2429c-1.251 0.09353-2.3032 0.43843-3.1567 1.0347-0.85348 0.58457-1.2802 1.403-1.2802 2.4552 0 1.0639 0.31567 1.8648 0.94701 2.4026 0.63134 0.53781 1.7946 0.98793 3.4899 1.3504zm6.4362 6.8921c0-1.099-0.3449-1.8999-1.0347-2.4026-0.67811-0.51442-1.7888-0.91778-3.3321-1.2101v7.2604c1.403-0.1403 2.4786-0.49689 3.2268-1.0698 0.75995-0.57288 1.1399-1.4322 1.1399-2.578z" color="#000000" color-rendering="auto" dominant-baseline="auto" fill="#c200d2" image-rendering="auto" solid-color="#000000" stop-color="#000000" style="font-feature-settings:normal;font-variant-alternates:normal;font-variant-caps:normal;font-variant-east-asian:normal;font-variant-ligatures:normal;font-variant-numeric:normal;font-variant-position:normal;font-variation-settings:normal;inline-size:0;isolation:auto;mix-blend-mode:normal;paint-order:stroke markers fill;shape-margin:0;shape-padding:0;text-decoration-color:#000000;text-decoration-line:none;text-decoration-style:solid;text-indent:0;text-orientation:mixed;text-transform:none;white-space:normal"/></g><g transform="scale(1.0066 .99349)" fill="#c200d2" stroke="#000" stroke-width="2.8" style="paint-order:stroke markers fill" aria-label="katdev.net"><path d="m262.41 76.858h-4.2441l-7.6668-8.3684-2.0878 1.9851v6.3833h-3.2173v-26.628h3.2173v17.079l9.2925-9.5663h4.0558l-8.8818 8.8305z"/><path d="m280.65 76.858h-3.2002v-2.0365q-0.42783 0.29092-1.1637 0.82144-0.71876 0.5134-1.4033 0.82144-0.80433 0.3936-1.8482 0.6503-1.0439 0.27381-2.4472 0.27381-2.5841 0-4.381-1.7113-1.7969-1.7113-1.7969-4.3639 0-2.1734 0.92412-3.5082 0.94123-1.3519 2.6697-2.122 1.7456-0.7701 4.1928-1.0439 2.4472-0.27381 5.2538-0.41072v-0.49628q0-1.0952-0.3936-1.814-0.3765-0.71876-1.0952-1.1295-0.68454-0.39361-1.6429-0.53051t-2.0022-0.13691q-1.2664 0-2.8237 0.34226-1.5573 0.32515-3.2173 0.95834h-0.17113v-3.2686q0.94123-0.2567 2.721-0.56474t3.5082-0.30804q2.0194 0 3.5082 0.34227 1.506 0.32515 2.6012 1.1295 1.0781 0.78721 1.6429 2.0365 0.56473 1.2493 0.56473 3.0975zm-3.2002-4.7062v-5.3222q-1.4717 0.08557-3.474 0.2567-1.9851 0.17113-3.1488 0.49629-1.3862 0.3936-2.2418 1.2322-0.85566 0.82144-0.85566 2.2761 0 1.6429 0.99257 2.4814 0.99257 0.82144 3.029 0.82144 1.6942 0 3.0975-0.6503 1.4033-0.66742 2.6012-1.5915z"/><path d="m296.78 76.686q-0.90701 0.23959-1.9851 0.39361-1.061 0.15402-1.8996 0.15402-2.9264 0-4.4494-1.5744-1.5231-1.5744-1.5231-5.0484v-10.165h-2.1734v-2.7039h2.1734v-5.4934h3.2173v5.4934h6.64v2.7039h-6.64v8.7107q0 1.506 0.0685 2.3616 0.0684 0.83855 0.47917 1.5744 0.37649 0.68453 1.0268 1.0097 0.66741 0.30804 2.0194 0.30804 0.78721 0 1.6429-0.22247 0.85566-0.23959 1.2322-0.3936h0.17114z"/><path d="m316.16 76.858h-3.2173v-2.0023q-1.3862 1.1979-2.8922 1.8653t-3.2686 0.66742q-3.4227 0-5.442-2.6354-2.0022-2.6354-2.0022-7.3074 0-2.4301 0.68453-4.3297 0.70164-1.8996 1.8825-3.2344 1.1637-1.3006 2.7039-1.9851 1.5573-0.68453 3.2173-0.68453 1.506 0 2.6697 0.32515 1.1637 0.30804 2.4472 0.97546v-8.2828h3.2173zm-3.2173-4.7062v-10.97q-1.3006-0.58185-2.3274-0.80432t-2.2418-0.22247q-2.7039 0-4.2099 1.8825t-1.506 5.3393q0 3.4055 1.1637 5.1853 1.1637 1.7627 3.7307 1.7627 1.3691 0 2.7724-0.59896 1.4033-0.61608 2.6183-1.5744z"/><path d="m338.5 67.634h-14.084q0 1.7627 0.53051 3.0804 0.53051 1.3006 1.4546 2.1392 0.88989 0.82144 2.1049 1.2322 1.2322 0.41072 2.7039 0.41072 1.9509 0 3.9189-0.7701 1.9851-0.78721 2.8237-1.5402h0.17113v3.5082q-1.6258 0.68453-3.32 1.1466-1.6942 0.46206-3.5596 0.46206-4.7575 0-7.4272-2.567-2.6697-2.5841-2.6697-7.3245 0-4.689 2.5499-7.4443 2.567-2.7552 6.7426-2.7552 3.8676 0 5.9554 2.259 2.1049 2.259 2.1049 6.4175zm-3.1317-2.4643q-0.0171-2.5328-1.2835-3.9189-1.2493-1.3862-3.8163-1.3862-2.5841 0-4.1243 1.5231-1.5231 1.5231-1.7284 3.782z"/><path d="m359.91 57.742-7.7352 19.116h-3.2344l-7.6839-19.116h3.4911l5.9212 15.214 5.8699-15.214z"/><path d="m366.29 76.858h-4.0901v-4.8773h4.0901z"/><path d="m389.77 76.858h-3.2173v-10.884q0-1.3177-0.15402-2.4643-0.15402-1.1637-0.56474-1.814-0.42783-0.71876-1.2322-1.061-0.80433-0.35938-2.0878-0.35938-1.3177 0-2.7552 0.6503-1.4375 0.6503-2.7552 1.66v14.272h-3.2173v-19.116h3.2173v2.122q1.506-1.2493 3.1146-1.9509 1.6086-0.70164 3.3029-0.70164 3.0975 0 4.7233 1.8653 1.6258 1.8653 1.6258 5.3736z"/><path d="m411.96 67.634h-14.084q0 1.7627 0.53052 3.0804 0.53051 1.3006 1.4546 2.1392 0.8899 0.82144 2.1049 1.2322 1.2322 0.41072 2.7039 0.41072 1.9509 0 3.9189-0.7701 1.9851-0.78721 2.8237-1.5402h0.17113v3.5082q-1.6258 0.68453-3.32 1.1466-1.6942 0.46206-3.5596 0.46206-4.7575 0-7.4272-2.567-2.6697-2.5841-2.6697-7.3245 0-4.689 2.5499-7.4443 2.567-2.7552 6.7426-2.7552 3.8676 0 5.9554 2.259 2.1049 2.259 2.1049 6.4175zm-3.1317-2.4643q-0.0171-2.5328-1.2835-3.9189-1.2493-1.3862-3.8163-1.3862-2.5841 0-4.1243 1.5231-1.5231 1.5231-1.7284 3.782z"/><path d="m426.77 76.686q-0.907 0.23959-1.9851 0.39361-1.061 0.15402-1.8996 0.15402-2.9264 0-4.4494-1.5744-1.5231-1.5744-1.5231-5.0484v-10.165h-2.1734v-2.7039h2.1734v-5.4934h3.2173v5.4934h6.64v2.7039h-6.64v8.7107q0 1.506 0.0684 2.3616 0.0685 0.83855 0.47918 1.5744 0.37649 0.68453 1.0268 1.0097 0.66742 0.30804 2.0194 0.30804 0.78721 0 1.6429-0.22247 0.85567-0.23959 1.2322-0.3936h0.17113z"/></g><g transform="translate(-53.975)" shape-rendering="auto" stroke-width="2.8" style="paint-order:stroke markers fill"><path d="m488.51 78.109v4.9043h25.773v-4.9043z" color="#000000" color-rendering="auto" dominant-baseline="auto" image-rendering="auto" solid-color="#000000" stop-color="#000000" style="font-feature-settings:normal;font-variant-alternates:normal;font-variant-caps:normal;font-variant-east-asian:normal;font-variant-ligatures:normal;font-variant-numeric:normal;font-variant-position:normal;font-variation-settings:normal;inline-size:0;isolation:auto;mix-blend-mode:normal;paint-order:stroke markers fill;shape-margin:0;shape-padding:0;text-decoration-color:#000000;text-decoration-line:none;text-decoration-style:solid;text-indent:0;text-orientation:mixed;text-transform:none;white-space:normal"/><path d="m512.88 81.614h-22.974v-2.1045h22.974z" color="#000000" color-rendering="auto" dominant-baseline="auto" fill="#c200d2" image-rendering="auto" solid-color="#000000" stop-color="#000000" style="font-feature-settings:normal;font-variant-alternates:normal;font-variant-caps:normal;font-variant-east-asian:normal;font-variant-ligatures:normal;font-variant-numeric:normal;font-variant-position:normal;font-variation-settings:normal;inline-size:0;isolation:auto;mix-blend-mode:normal;paint-order:stroke markers fill;shape-margin:0;shape-padding:0;text-decoration-color:#000000;text-decoration-line:none;text-decoration-style:solid;text-indent:0;text-orientation:mixed;text-transform:none;white-space:normal"/></g></g></g><script id="f" type="text/javascript">!function(){const t="http://www.w3.org/2000/svg",e="http://www.w3.org/1999/xlink",s="http://www.w3.org/1999/xhtml",r=2;if(document.createElementNS(t,"meshgradient").x)return;const n=(t,e,s,r)=&gt;{let n=new x(.5*(e.x+s.x),.5*(e.y+s.y)),o=new x(.5*(t.x+e.x),.5*(t.y+e.y)),i=new x(.5*(s.x+r.x),.5*(s.y+r.y)),a=new x(.5*(n.x+o.x),.5*(n.y+o.y)),h=new x(.5*(n.x+i.x),.5*(n.y+i.y)),l=new x(.5*(a.x+h.x),.5*(a.y+h.y));return[[t,o,a,l],[l,h,i,r]]},o=t=&gt;{let e=t[0].distSquared(t[1]),s=t[2].distSquared(t[3]),r=.25*t[0].distSquared(t[2]),n=.25*t[1].distSquared(t[3]),o=e&gt;s?e:s,i=r&gt;n?r:n;return 18*(o&gt;i?o:i)},i=(t,e)=&gt;Math.sqrt(t.distSquared(e)),a=(t,e)=&gt;t.scale(2/3).add(e.scale(1/3)),h=t=&gt;{let e,s,r,n,o,i,a,h=new g;return t.match(/(\w+\(\s*[^)]+\))+/g).forEach(t=&gt;{let l=t.match(/[\w.-]+/g),d=l.shift();switch(d){case"translate":2===l.length?e=new g(1,0,0,1,l[0],l[1]):(console.error("mesh.js: translate does not have 2 arguments!"),e=new g(1,0,0,1,0,0)),h=h.append(e);break;case"scale":1===l.length?s=new g(l[0],0,0,l[0],0,0):2===l.length?s=new g(l[0],0,0,l[1],0,0):(console.error("mesh.js: scale does not have 1 or 2 arguments!"),s=new g(1,0,0,1,0,0)),h=h.append(s);break;case"rotate":if(3===l.length&amp;&amp;(e=new g(1,0,0,1,l[1],l[2]),h=h.append(e)),l[0]){r=l[0]*Math.PI/180;let t=Math.cos(r),e=Math.sin(r);Math.abs(t)&lt;1e-16&amp;&amp;(t=0),Math.abs(e)&lt;1e-16&amp;&amp;(e=0),a=new g(t,e,-e,t,0,0),h=h.append(a)}else console.error("math.js: No argument to rotate transform!");3===l.length&amp;&amp;(e=new g(1,0,0,1,-l[1],-l[2]),h=h.append(e));break;case"skewX":l[0]?(r=l[0]*Math.PI/180,n=Math.tan(r),o=new g(1,0,n,1,0,0),h=h.append(o)):console.error("math.js: No argument to skewX transform!");break;case"skewY":l[0]?(r=l[0]*Math.PI/180,n=Math.tan(r),i=new g(1,n,0,1,0,0),h=h.append(i)):console.error("math.js: No argument to skewY transform!");break;case"matrix":6===l.length?h=h.append(new g(...l)):console.error("math.js: Incorrect number of arguments for matrix!");break;default:console.error("mesh.js: Unhandled transform type: "+d)}}),h},l=t=&gt;{let e=[],s=t.split(/[ ,]+/);for(let t=0,r=s.length-1;t&lt;r;t+=2)e.push(new x(parseFloat(s[t]),parseFloat(s[t+1])));return e},d=(t,e)=&gt;{for(let s in e)t.setAttribute(s,e[s])},c=(t,e,s,r,n)=&gt;{let o,i,a=[0,0,0,0];for(let h=0;h&lt;3;++h)e[h]&lt;t[h]&amp;&amp;e[h]&lt;s[h]||t[h]&lt;e[h]&amp;&amp;s[h]&lt;e[h]?a[h]=0:(a[h]=.5*((e[h]-t[h])/r+(s[h]-e[h])/n),o=Math.abs(3*(e[h]-t[h])/r),i=Math.abs(3*(s[h]-e[h])/n),a[h]&gt;o?a[h]=o:a[h]&gt;i&amp;&amp;(a[h]=i));return a},u=[[1,0,0,0,0,0,0,0,0,0,0,0,0,0,0,0],[0,0,0,0,1,0,0,0,0,0,0,0,0,0,0,0],[-3,3,0,0,-2,-1,0,0,0,0,0,0,0,0,0,0],[2,-2,0,0,1,1,0,0,0,0,0,0,0,0,0,0],[0,0,0,0,0,0,0,0,1,0,0,0,0,0,0,0],[0,0,0,0,0,0,0,0,0,0,0,0,1,0,0,0],[0,0,0,0,0,0,0,0,-3,3,0,0,-2,-1,0,0],[0,0,0,0,0,0,0,0,2,-2,0,0,1,1,0,0],[-3,0,3,0,0,0,0,0,-2,0,-1,0,0,0,0,0],[0,0,0,0,-3,0,3,0,0,0,0,0,-2,0,-1,0],[9,-9,-9,9,6,3,-6,-3,6,-6,3,-3,4,2,2,1],[-6,6,6,-6,-3,-3,3,3,-4,4,-2,2,-2,-2,-1,-1],[2,0,-2,0,0,0,0,0,1,0,1,0,0,0,0,0],[0,0,0,0,2,0,-2,0,0,0,0,0,1,0,1,0],[-6,6,6,-6,-4,-2,4,2,-3,3,-3,3,-2,-1,-2,-1],[4,-4,-4,4,2,2,-2,-2,2,-2,2,-2,1,1,1,1]],f=t=&gt;{let e=[];for(let s=0;s&lt;16;++s){e[s]=0;for(let r=0;r&lt;16;++r)e[s]+=u[s][r]*t[r]}return e},p=(t,e,s)=&gt;{const r=e*e,n=s*s,o=e*e*e,i=s*s*s;return t[0]+t[1]*e+t[2]*r+t[3]*o+t[4]*s+t[5]*s*e+t[6]*s*r+t[7]*s*o+t[8]*n+t[9]*n*e+t[10]*n*r+t[11]*n*o+t[12]*i+t[13]*i*e+t[14]*i*r+t[15]*i*o},y=t=&gt;{let e=[],s=[],r=[];for(let s=0;s&lt;4;++s)e[s]=[],e[s][0]=n(t[0][s],t[1][s],t[2][s],t[3][s]),e[s][1]=[],e[s][1].push(...n(...e[s][0][0])),e[s][1].push(...n(...e[s][0][1])),e[s][2]=[],e[s][2].push(...n(...e[s][1][0])),e[s][2].push(...n(...e[s][1][1])),e[s][2].push(...n(...e[s][1][2])),e[s][2].push(...n(...e[s][1][3]));for(let t=0;t&lt;8;++t){s[t]=[];for(let r=0;r&lt;4;++r)s[t][r]=[],s[t][r][0]=n(e[0][2][t][r],e[1][2][t][r],e[2][2][t][r],e[3][2][t][r]),s[t][r][1]=[],s[t][r][1].push(...n(...s[t][r][0][0])),s[t][r][1].push(...n(...s[t][r][0][1])),s[t][r][2]=[],s[t][r][2].push(...n(...s[t][r][1][0])),s[t][r][2].push(...n(...s[t][r][1][1])),s[t][r][2].push(...n(...s[t][r][1][2])),s[t][r][2].push(...n(...s[t][r][1][3]))}for(let t=0;t&lt;8;++t){r[t]=[];for(let e=0;e&lt;8;++e)r[t][e]=[],r[t][e][0]=s[t][0][2][e],r[t][e][1]=s[t][1][2][e],r[t][e][2]=s[t][2][2][e],r[t][e][3]=s[t][3][2][e]}return r};class x{constructor(t,e){this.x=t||0,this.y=e||0}toString(){return`(x=${this.x}, y=${this.y})`}clone(){return new x(this.x,this.y)}add(t){return new x(this.x+t.x,this.y+t.y)}scale(t){return void 0===t.x?new x(this.x*t,this.y*t):new x(this.x*t.x,this.y*t.y)}distSquared(t){let e=this.x-t.x,s=this.y-t.y;return e*e+s*s}transform(t){let e=this.x*t.a+this.y*t.c+t.e,s=this.x*t.b+this.y*t.d+t.f;return new x(e,s)}}class g{constructor(t,e,s,r,n,o){void 0===t?(this.a=1,this.b=0,this.c=0,this.d=1,this.e=0,this.f=0):(this.a=t,this.b=e,this.c=s,this.d=r,this.e=n,this.f=o)}toString(){return`affine: ${this.a} ${this.c} ${this.e} \n       ${this.b} ${this.d} ${this.f}`}append(t){t instanceof g||console.error("mesh.js: argument to Affine.append is not affine!");let e=this.a*t.a+this.c*t.b,s=this.b*t.a+this.d*t.b,r=this.a*t.c+this.c*t.d,n=this.b*t.c+this.d*t.d,o=this.a*t.e+this.c*t.f+this.e,i=this.b*t.e+this.d*t.f+this.f;return new g(e,s,r,n,o,i)}}class w{constructor(t,e){this.nodes=t,this.colors=e}paintCurve(t,e){if(o(this.nodes)&gt;r){const s=n(...this.nodes);let r=[[],[]],o=[[],[]];for(let t=0;t&lt;4;++t)r[0][t]=this.colors[0][t],r[1][t]=(this.colors[0][t]+this.colors[1][t])/2,o[0][t]=r[1][t],o[1][t]=this.colors[1][t];let i=new w(s[0],r),a=new w(s[1],o);i.paintCurve(t,e),a.paintCurve(t,e)}else{let s=Math.round(this.nodes[0].x);if(s&gt;=0&amp;&amp;s&lt;e){let r=4*(~~this.nodes[0].y*e+s);t[r]=Math.round(this.colors[0][0]),t[r+1]=Math.round(this.colors[0][1]),t[r+2]=Math.round(this.colors[0][2]),t[r+3]=Math.round(this.colors[0][3])}}}}class m{constructor(t,e){this.nodes=t,this.colors=e}split(){let t=[[],[],[],[]],e=[[],[],[],[]],s=[[[],[]],[[],[]]],r=[[[],[]],[[],[]]];for(let s=0;s&lt;4;++s){const r=n(this.nodes[0][s],this.nodes[1][s],this.nodes[2][s],this.nodes[3][s]);t[0][s]=r[0][0],t[1][s]=r[0][1],t[2][s]=r[0][2],t[3][s]=r[0][3],e[0][s]=r[1][0],e[1][s]=r[1][1],e[2][s]=r[1][2],e[3][s]=r[1][3]}for(let t=0;t&lt;4;++t)s[0][0][t]=this.colors[0][0][t],s[0][1][t]=this.colors[0][1][t],s[1][0][t]=(this.colors[0][0][t]+this.colors[1][0][t])/2,s[1][1][t]=(this.colors[0][1][t]+this.colors[1][1][t])/2,r[0][0][t]=s[1][0][t],r[0][1][t]=s[1][1][t],r[1][0][t]=this.colors[1][0][t],r[1][1][t]=this.colors[1][1][t];return[new m(t,s),new m(e,r)]}paint(t,e){let s,n=!1;for(let t=0;t&lt;4;++t)if((s=o([this.nodes[0][t],this.nodes[1][t],this.nodes[2][t],this.nodes[3][t]]))&gt;r){n=!0;break}if(n){let s=this.split();s[0].paint(t,e),s[1].paint(t,e)}else{new w([...this.nodes[0]],[...this.colors[0]]).paintCurve(t,e)}}}class b{constructor(t){this.readMesh(t),this.type=t.getAttribute("type")||"bilinear"}readMesh(t){let e=[[]],s=[[]],r=Number(t.getAttribute("x")),n=Number(t.getAttribute("y"));e[0][0]=new x(r,n);let o=t.children;for(let t=0,r=o.length;t&lt;r;++t){e[3*t+1]=[],e[3*t+2]=[],e[3*t+3]=[],s[t+1]=[];let r=o[t].children;for(let n=0,o=r.length;n&lt;o;++n){let o=r[n].children;for(let r=0,i=o.length;r&lt;i;++r){let i=r;0!==t&amp;&amp;++i;let h,d=o[r].getAttribute("path"),c="l";null!=d&amp;&amp;(c=(h=d.match(/\s*([lLcC])\s*(.*)/))[1]);let u=l(h[2]);switch(c){case"l":0===i?(e[3*t][3*n+3]=u[0].add(e[3*t][3*n]),e[3*t][3*n+1]=a(e[3*t][3*n],e[3*t][3*n+3]),e[3*t][3*n+2]=a(e[3*t][3*n+3],e[3*t][3*n])):1===i?(e[3*t+3][3*n+3]=u[0].add(e[3*t][3*n+3]),e[3*t+1][3*n+3]=a(e[3*t][3*n+3],e[3*t+3][3*n+3]),e[3*t+2][3*n+3]=a(e[3*t+3][3*n+3],e[3*t][3*n+3])):2===i?(0===n&amp;&amp;(e[3*t+3][3*n+0]=u[0].add(e[3*t+3][3*n+3])),e[3*t+3][3*n+1]=a(e[3*t+3][3*n],e[3*t+3][3*n+3]),e[3*t+3][3*n+2]=a(e[3*t+3][3*n+3],e[3*t+3][3*n])):(e[3*t+1][3*n]=a(e[3*t][3*n],e[3*t+3][3*n]),e[3*t+2][3*n]=a(e[3*t+3][3*n],e[3*t][3*n]));break;case"L":0===i?(e[3*t][3*n+3]=u[0],e[3*t][3*n+1]=a(e[3*t][3*n],e[3*t][3*n+3]),e[3*t][3*n+2]=a(e[3*t][3*n+3],e[3*t][3*n])):1===i?(e[3*t+3][3*n+3]=u[0],e[3*t+1][3*n+3]=a(e[3*t][3*n+3],e[3*t+3][3*n+3]),e[3*t+2][3*n+3]=a(e[3*t+3][3*n+3],e[3*t][3*n+3])):2===i?(0===n&amp;&amp;(e[3*t+3][3*n+0]=u[0]),e[3*t+3][3*n+1]=a(e[3*t+3][3*n],e[3*t+3][3*n+3]),e[3*t+3][3*n+2]=a(e[3*t+3][3*n+3],e[3*t+3][3*n])):(e[3*t+1][3*n]=a(e[3*t][3*n],e[3*t+3][3*n]),e[3*t+2][3*n]=a(e[3*t+3][3*n],e[3*t][3*n]));break;case"c":0===i?(e[3*t][3*n+1]=u[0].add(e[3*t][3*n]),e[3*t][3*n+2]=u[1].add(e[3*t][3*n]),e[3*t][3*n+3]=u[2].add(e[3*t][3*n])):1===i?(e[3*t+1][3*n+3]=u[0].add(e[3*t][3*n+3]),e[3*t+2][3*n+3]=u[1].add(e[3*t][3*n+3]),e[3*t+3][3*n+3]=u[2].add(e[3*t][3*n+3])):2===i?(e[3*t+3][3*n+2]=u[0].add(e[3*t+3][3*n+3]),e[3*t+3][3*n+1]=u[1].add(e[3*t+3][3*n+3]),0===n&amp;&amp;(e[3*t+3][3*n+0]=u[2].add(e[3*t+3][3*n+3]))):(e[3*t+2][3*n]=u[0].add(e[3*t+3][3*n]),e[3*t+1][3*n]=u[1].add(e[3*t+3][3*n]));break;case"C":0===i?(e[3*t][3*n+1]=u[0],e[3*t][3*n+2]=u[1],e[3*t][3*n+3]=u[2]):1===i?(e[3*t+1][3*n+3]=u[0],e[3*t+2][3*n+3]=u[1],e[3*t+3][3*n+3]=u[2]):2===i?(e[3*t+3][3*n+2]=u[0],e[3*t+3][3*n+1]=u[1],0===n&amp;&amp;(e[3*t+3][3*n+0]=u[2])):(e[3*t+2][3*n]=u[0],e[3*t+1][3*n]=u[1]);break;default:console.error("mesh.js: "+c+" invalid path type.")}if(0===t&amp;&amp;0===n||r&gt;0){let e=window.getComputedStyle(o[r]).stopColor.match(/^rgb\s*\(\s*(\d+)\s*,\s*(\d+)\s*,\s*(\d+)\s*\)$/i),a=window.getComputedStyle(o[r]).stopOpacity,h=255;a&amp;&amp;(h=Math.floor(255*a)),e&amp;&amp;(0===i?(s[t][n]=[],s[t][n][0]=Math.floor(e[1]),s[t][n][1]=Math.floor(e[2]),s[t][n][2]=Math.floor(e[3]),s[t][n][3]=h):1===i?(s[t][n+1]=[],s[t][n+1][0]=Math.floor(e[1]),s[t][n+1][1]=Math.floor(e[2]),s[t][n+1][2]=Math.floor(e[3]),s[t][n+1][3]=h):2===i?(s[t+1][n+1]=[],s[t+1][n+1][0]=Math.floor(e[1]),s[t+1][n+1][1]=Math.floor(e[2]),s[t+1][n+1][2]=Math.floor(e[3]),s[t+1][n+1][3]=h):3===i&amp;&amp;(s[t+1][n]=[],s[t+1][n][0]=Math.floor(e[1]),s[t+1][n][1]=Math.floor(e[2]),s[t+1][n][2]=Math.floor(e[3]),s[t+1][n][3]=h))}}e[3*t+1][3*n+1]=new x,e[3*t+1][3*n+2]=new x,e[3*t+2][3*n+1]=new x,e[3*t+2][3*n+2]=new x,e[3*t+1][3*n+1].x=(-4*e[3*t][3*n].x+6*(e[3*t][3*n+1].x+e[3*t+1][3*n].x)+-2*(e[3*t][3*n+3].x+e[3*t+3][3*n].x)+3*(e[3*t+3][3*n+1].x+e[3*t+1][3*n+3].x)+-1*e[3*t+3][3*n+3].x)/9,e[3*t+1][3*n+2].x=(-4*e[3*t][3*n+3].x+6*(e[3*t][3*n+2].x+e[3*t+1][3*n+3].x)+-2*(e[3*t][3*n].x+e[3*t+3][3*n+3].x)+3*(e[3*t+3][3*n+2].x+e[3*t+1][3*n].x)+-1*e[3*t+3][3*n].x)/9,e[3*t+2][3*n+1].x=(-4*e[3*t+3][3*n].x+6*(e[3*t+3][3*n+1].x+e[3*t+2][3*n].x)+-2*(e[3*t+3][3*n+3].x+e[3*t][3*n].x)+3*(e[3*t][3*n+1].x+e[3*t+2][3*n+3].x)+-1*e[3*t][3*n+3].x)/9,e[3*t+2][3*n+2].x=(-4*e[3*t+3][3*n+3].x+6*(e[3*t+3][3*n+2].x+e[3*t+2][3*n+3].x)+-2*(e[3*t+3][3*n].x+e[3*t][3*n+3].x)+3*(e[3*t][3*n+2].x+e[3*t+2][3*n].x)+-1*e[3*t][3*n].x)/9,e[3*t+1][3*n+1].y=(-4*e[3*t][3*n].y+6*(e[3*t][3*n+1].y+e[3*t+1][3*n].y)+-2*(e[3*t][3*n+3].y+e[3*t+3][3*n].y)+3*(e[3*t+3][3*n+1].y+e[3*t+1][3*n+3].y)+-1*e[3*t+3][3*n+3].y)/9,e[3*t+1][3*n+2].y=(-4*e[3*t][3*n+3].y+6*(e[3*t][3*n+2].y+e[3*t+1][3*n+3].y)+-2*(e[3*t][3*n].y+e[3*t+3][3*n+3].y)+3*(e[3*t+3][3*n+2].y+e[3*t+1][3*n].y)+-1*e[3*t+3][3*n].y)/9,e[3*t+2][3*n+1].y=(-4*e[3*t+3][3*n].y+6*(e[3*t+3][3*n+1].y+e[3*t+2][3*n].y)+-2*(e[3*t+3][3*n+3].y+e[3*t][3*n].y)+3*(e[3*t][3*n+1].y+e[3*t+2][3*n+3].y)+-1*e[3*t][3*n+3].y)/9,e[3*t+2][3*n+2].y=(-4*e[3*t+3][3*n+3].y+6*(e[3*t+3][3*n+2].y+e[3*t+2][3*n+3].y)+-2*(e[3*t+3][3*n].y+e[3*t][3*n+3].y)+3*(e[3*t][3*n+2].y+e[3*t+2][3*n].y)+-1*e[3*t][3*n].y)/9}}this.nodes=e,this.colors=s}paintMesh(t,e){let s=(this.nodes.length-1)/3,r=(this.nodes[0].length-1)/3;if("bilinear"===this.type||s&lt;2||r&lt;2){let n;for(let o=0;o&lt;s;++o)for(let s=0;s&lt;r;++s){let r=[];for(let t=3*o,e=3*o+4;t&lt;e;++t)r.push(this.nodes[t].slice(3*s,3*s+4));let i=[];i.push(this.colors[o].slice(s,s+2)),i.push(this.colors[o+1].slice(s,s+2)),(n=new m(r,i)).paint(t,e)}}else{let n,o,a,h,l,d,u;const x=s,g=r;s++,r++;let w=new Array(s);for(let t=0;t&lt;s;++t){w[t]=new Array(r);for(let e=0;e&lt;r;++e)w[t][e]=[],w[t][e][0]=this.nodes[3*t][3*e],w[t][e][1]=this.colors[t][e]}for(let t=0;t&lt;s;++t)for(let e=0;e&lt;r;++e)0!==t&amp;&amp;t!==x&amp;&amp;(n=i(w[t-1][e][0],w[t][e][0]),o=i(w[t+1][e][0],w[t][e][0]),w[t][e][2]=c(w[t-1][e][1],w[t][e][1],w[t+1][e][1],n,o)),0!==e&amp;&amp;e!==g&amp;&amp;(n=i(w[t][e-1][0],w[t][e][0]),o=i(w[t][e+1][0],w[t][e][0]),w[t][e][3]=c(w[t][e-1][1],w[t][e][1],w[t][e+1][1],n,o));for(let t=0;t&lt;r;++t){w[0][t][2]=[],w[x][t][2]=[];for(let e=0;e&lt;4;++e)n=i(w[1][t][0],w[0][t][0]),o=i(w[x][t][0],w[x-1][t][0]),w[0][t][2][e]=n&gt;0?2*(w[1][t][1][e]-w[0][t][1][e])/n-w[1][t][2][e]:0,w[x][t][2][e]=o&gt;0?2*(w[x][t][1][e]-w[x-1][t][1][e])/o-w[x-1][t][2][e]:0}for(let t=0;t&lt;s;++t){w[t][0][3]=[],w[t][g][3]=[];for(let e=0;e&lt;4;++e)n=i(w[t][1][0],w[t][0][0]),o=i(w[t][g][0],w[t][g-1][0]),w[t][0][3][e]=n&gt;0?2*(w[t][1][1][e]-w[t][0][1][e])/n-w[t][1][3][e]:0,w[t][g][3][e]=o&gt;0?2*(w[t][g][1][e]-w[t][g-1][1][e])/o-w[t][g-1][3][e]:0}for(let s=0;s&lt;x;++s)for(let r=0;r&lt;g;++r){let n=i(w[s][r][0],w[s+1][r][0]),o=i(w[s][r+1][0],w[s+1][r+1][0]),c=i(w[s][r][0],w[s][r+1][0]),x=i(w[s+1][r][0],w[s+1][r+1][0]),g=[[],[],[],[]];for(let t=0;t&lt;4;++t){(d=[])[0]=w[s][r][1][t],d[1]=w[s+1][r][1][t],d[2]=w[s][r+1][1][t],d[3]=w[s+1][r+1][1][t],d[4]=w[s][r][2][t]*n,d[5]=w[s+1][r][2][t]*n,d[6]=w[s][r+1][2][t]*o,d[7]=w[s+1][r+1][2][t]*o,d[8]=w[s][r][3][t]*c,d[9]=w[s+1][r][3][t]*x,d[10]=w[s][r+1][3][t]*c,d[11]=w[s+1][r+1][3][t]*x,d[12]=0,d[13]=0,d[14]=0,d[15]=0,u=f(d);for(let e=0;e&lt;9;++e){g[t][e]=[];for(let s=0;s&lt;9;++s)g[t][e][s]=p(u,e/8,s/8),g[t][e][s]&gt;255?g[t][e][s]=255:g[t][e][s]&lt;0&amp;&amp;(g[t][e][s]=0)}}h=[];for(let t=3*s,e=3*s+4;t&lt;e;++t)h.push(this.nodes[t].slice(3*r,3*r+4));l=y(h);for(let s=0;s&lt;8;++s)for(let r=0;r&lt;8;++r)(a=new m(l[s][r],[[[g[0][s][r],g[1][s][r],g[2][s][r],g[3][s][r]],[g[0][s][r+1],g[1][s][r+1],g[2][s][r+1],g[3][s][r+1]]],[[g[0][s+1][r],g[1][s+1][r],g[2][s+1][r],g[3][s+1][r]],[g[0][s+1][r+1],g[1][s+1][r+1],g[2][s+1][r+1],g[3][s+1][r+1]]]])).paint(t,e)}}}transform(t){if(t instanceof x)for(let e=0,s=this.nodes.length;e&lt;s;++e)for(let s=0,r=this.nodes[0].length;s&lt;r;++s)this.nodes[e][s]=this.nodes[e][s].add(t);else if(t instanceof g)for(let e=0,s=this.nodes.length;e&lt;s;++e)for(let s=0,r=this.nodes[0].length;s&lt;r;++s)this.nodes[e][s]=this.nodes[e][s].transform(t)}scale(t){for(let e=0,s=this.nodes.length;e&lt;s;++e)for(let s=0,r=this.nodes[0].length;s&lt;r;++s)this.nodes[e][s]=this.nodes[e][s].scale(t)}}document.querySelectorAll("rect,circle,ellipse,path,text").forEach((r,n)=&gt;{let o=r.getAttribute("id");o||(o="patchjs_shape"+n,r.setAttribute("id",o));const i=r.style.fill.match(/^url\(\s*"?\s*#([^\s"]+)"?\s*\)/),a=r.style.stroke.match(/^url\(\s*"?\s*#([^\s"]+)"?\s*\)/);if(i&amp;&amp;i[1]){const a=document.getElementById(i[1]);if(a&amp;&amp;"meshgradient"===a.nodeName){const i=r.getBBox();let l=document.createElementNS(s,"canvas");d(l,{width:i.width,height:i.height});const c=l.getContext("2d");let u=c.createImageData(i.width,i.height);const f=new b(a);"objectBoundingBox"===a.getAttribute("gradientUnits")&amp;&amp;f.scale(new x(i.width,i.height));const p=a.getAttribute("gradientTransform");null!=p&amp;&amp;f.transform(h(p)),"userSpaceOnUse"===a.getAttribute("gradientUnits")&amp;&amp;f.transform(new x(-i.x,-i.y)),f.paintMesh(u.data,l.width),c.putImageData(u,0,0);const y=document.createElementNS(t,"image");d(y,{width:i.width,height:i.height,x:i.x,y:i.y});let g=l.toDataURL();y.setAttributeNS(e,"xlink:href",g),r.parentNode.insertBefore(y,r),r.style.fill="none";const w=document.createElementNS(t,"use");w.setAttributeNS(e,"xlink:href","#"+o);const m="patchjs_clip"+n,M=document.createElementNS(t,"clipPath");M.setAttribute("id",m),M.appendChild(w),r.parentElement.insertBefore(M,r),y.setAttribute("clip-path","url(#"+m+")"),u=null,l=null,g=null}}if(a&amp;&amp;a[1]){const o=document.getElementById(a[1]);if(o&amp;&amp;"meshgradient"===o.nodeName){const i=parseFloat(r.style.strokeWidth.slice(0,-2))*(parseFloat(r.style.strokeMiterlimit)||parseFloat(r.getAttribute("stroke-miterlimit"))||1),a=r.getBBox(),l=Math.trunc(a.width+i),c=Math.trunc(a.height+i),u=Math.trunc(a.x-i/2),f=Math.trunc(a.y-i/2);let p=document.createElementNS(s,"canvas");d(p,{width:l,height:c});const y=p.getContext("2d");let g=y.createImageData(l,c);const w=new b(o);"objectBoundingBox"===o.getAttribute("gradientUnits")&amp;&amp;w.scale(new x(l,c));const m=o.getAttribute("gradientTransform");null!=m&amp;&amp;w.transform(h(m)),"userSpaceOnUse"===o.getAttribute("gradientUnits")&amp;&amp;w.transform(new x(-u,-f)),w.paintMesh(g.data,p.width),y.putImageData(g,0,0);const M=document.createElementNS(t,"image");d(M,{width:l,height:c,x:0,y:0});let S=p.toDataURL();M.setAttributeNS(e,"xlink:href",S);const k="pattern_clip"+n,A=document.createElementNS(t,"pattern");d(A,{id:k,patternUnits:"userSpaceOnUse",width:l,height:c,x:u,y:f}),A.appendChild(M),o.parentNode.appendChild(A),r.style.stroke="url(#"+k+")",g=null,p=null,S=null}}})}();</script></svg>
